<?xml version="1.0" encoding="UTF-8"?>
<svg width="1920px" height="1080px" viewBox="0 0 1920 1080" version="1.1" xmlns="http://www.w3.org/2000/svg" xmlns:xlink="http://www.w3.org/1999/xlink">
    <!-- Generator: Sketch 52.6 (67491) - http://www.bohemiancoding.com/sketch -->
    <title>Artboard</title>
    <desc>Created with Sketch.</desc>
    <defs>
        <linearGradient x1="1.06227794%" y1="0.974695703%" x2="100%" y2="100%" id="linearGradient-1">
            <stop stop-color="#3023AE" offset="0%"></stop>
            <stop stop-color="#C51EA1" offset="100%"></stop>
        </linearGradient>
    </defs>
    <g id="Artboard" stroke="none" stroke-width="1" fill="none" fill-rule="evenodd">
        <rect id="Rectangle" fill="#FFFFFF" fill-rule="nonzero" x="0" y="0" width="1920" height="1080"></rect>
        <rect id="Rectangle" fill="url(#linearGradient-1)" fill-rule="nonzero" opacity="0.41843843" x="0" y="0" width="1920" height="1080"></rect>
        <rect id="Rectangle" fill="url(#linearGradient-1)" fill-rule="nonzero" opacity="0.2" x="0" y="0" width="1920" height="1080"></rect>
        <text id="THE-PAGE-YOU-WERE-LO" font-family="Rubik-Regular, Rubik" font-size="60" font-weight="normal" line-spacing="100" fill="#000000">
            <tspan x="144" y="210">THE PAGE YOU WERE </tspan>
            <tspan x="144" y="310">LOOKING FOR </tspan>
            <tspan x="144" y="410">DOESN'T EXIST.</tspan>
        </text>
        <g id="cystem" transform="translate(1044.000000, 690.000000)">
            <g id="Group">
                <g id="Group-2" fill-rule="nonzero">
                    <path d="M27.8967626,13.300426 C28.4072235,4.78159008 28.3179823,11.1912565 27.8967626,9.7430648 C27.1952194,7.3310956 23.1157597,38.5119758 17.4667834,72.7925186 C15.3537494,85.6153638 11.3261692,101.37478 5.38404275,120.070769 C17.5283263,105.848965 27.7879499,92.2018048 36.1629138,79.1292892 C44.5378777,66.0567737 57.8388949,42.9280322 76.0659654,9.7430648 C41.6056953,51.2904035 25.5492944,52.4761906 27.8967626,13.300426 Z" id="Path-3" fill="#C51EA1"></path>
                    <path d="M22.4145505,4.95780643 C22.9250114,-3.51373747 22.8357702,2.86034592 22.4145505,1.42019378 C21.7130073,-0.978385448 17.6335477,30.0293952 11.9845713,64.1196306 C9.87153734,76.8712903 5.84395714,92.543219 -0.098169337,111.135417 C12.0461142,96.9925649 22.3057378,83.4211668 30.6807017,70.4212229 C39.0556656,57.421279 52.3566828,34.420936 70.5837533,1.42019378 C36.1234833,42.7368838 20.0670823,43.916088 22.4145505,4.95780643 Z" id="Path-3" fill="#7138E0"></path>
                </g>
                <text id="cystem" font-family="Rubik-Regular, Rubik" font-size="78.5354696" font-weight="normal" letter-spacing="1.74523293" fill="#000000">
                    <tspan x="79.4961618" y="91.6011843">cystem</tspan>
                </text>
            </g>
        </g>
        <g id="undraw_page_not_found_su7k" transform="translate(768.000000, 173.000000)">
            <ellipse id="Oval" fill="#F2F2F2" cx="467.148167" cy="475.129156" rx="455.791434" ry="30.2056916"></ellipse>
            <path d="M449.678808,144.456288 C375.418011,144.456288 322.099546,192.149495 322.099546,303.433625 C322.099546,429.555639 375.417993,462.940888 449.678808,462.940888 C523.939624,462.940888 580.434354,426.376099 580.434354,303.433625 C580.434311,172.012365 523.939606,144.456288 449.678808,144.456288 Z M450.166959,421.076861 C398.732205,421.076861 371.860764,390.870062 371.860764,303.51507 C371.860764,226.437128 399.832178,185.790399 451.266976,185.790399 C502.701773,185.790399 530.673188,212.489675 530.673188,303.51507 C530.67311,388.667829 501.601713,421.076861 450.166959,421.076861 Z" id="Shape" fill="#2F2E41" fill-rule="nonzero"></path>
            <path d="M277.632119,374.973428 L246.928358,374.973428 L246.928358,284.464836 C246.928348,274.454183 238.821535,266.338948 228.821272,266.338938 L221.626783,266.338938 C216.824479,266.338936 212.218865,268.248624 208.823122,271.647893 C205.42738,275.047162 203.519671,279.65756 203.519671,284.464853 L203.519671,374.973428 L116.914909,374.973428 C113.291066,374.973433 109.931845,373.073812 108.061359,369.966796 C106.190874,366.859779 106.082302,362.999135 107.775207,359.791698 L199.436722,186.125284 C201.74599,181.750007 202.167928,176.619838 200.604613,171.925392 C199.041298,167.230946 195.628659,163.3804 191.158703,161.26739 L185.747694,158.709538 C177.021351,154.584484 166.596638,158.035206 162.047144,166.554744 L50.253844,375.902556 C48.3501583,379.467456 47.3541979,383.447343 47.3541983,387.489628 C47.3541983,394.008247 49.9410229,400.25988 54.5455999,404.86924 C59.1501769,409.478599 65.3953232,412.068108 71.9071774,412.068106 L203.519671,412.068106 L203.519671,469.299967 C203.519671,475.062289 205.806369,480.588601 209.876717,484.663178 C213.947066,488.737755 219.467643,491.026829 225.223984,491.026829 L225.224027,491.026829 C230.980369,491.026829 236.500946,488.737755 240.571294,484.663178 C244.641642,480.588601 246.92834,475.062289 246.92834,469.299967 L246.92834,412.068141 L277.632076,412.068141 C287.864857,412.068141 296.160166,403.764214 296.160166,393.520802 C296.160185,383.277392 287.864897,374.973452 277.632119,374.973428 Z" id="Path" fill="#7138E0"></path>
            <path d="M846.180322,374.973428 L815.476587,374.973428 L815.476587,284.464836 C815.476577,274.454173 807.369749,266.338934 797.369475,266.338938 L790.174987,266.338938 C785.372683,266.338936 780.767068,268.248624 777.371326,271.647893 C773.975583,275.047162 772.067875,279.65756 772.067875,284.464853 L772.067875,374.973428 L685.463113,374.973428 C681.839268,374.973438 678.480043,373.073818 676.609556,369.9668 C674.739069,366.859782 674.6305,362.999135 676.32341,359.791698 L767.984917,186.125319 C770.294194,181.750039 770.716138,176.619863 769.152825,171.92541 C767.589511,167.230956 764.176868,163.380403 759.706906,161.26739 L754.295897,158.709538 C745.569552,154.584483 735.144836,158.035205 730.595339,166.554744 L618.802048,375.902556 C616.898362,379.467456 615.902401,383.447343 615.902402,387.489628 C615.902402,401.063946 626.895141,412.068106 640.455372,412.068106 L772.067875,412.068106 L772.067875,469.299967 C772.067875,481.299381 781.785227,491.026829 793.772188,491.026829 C805.759149,491.026829 815.476501,481.299381 815.476501,469.299967 L815.476501,412.068141 L846.180236,412.068141 C856.413018,412.068141 864.708326,403.764214 864.708326,393.520802 C864.708345,383.277409 856.413084,374.973476 846.180322,374.973428 Z" id="Path" fill="#7138E0"></path>
            <path d="M286.102115,364.374925 L255.398371,364.374925 L255.398371,273.86635 C255.398373,269.059057 253.490667,264.448658 250.094926,261.049387 C246.699185,257.650117 242.093571,255.740427 237.291268,255.740427 L230.096779,255.740427 C220.096497,255.740427 211.989667,263.855679 211.989667,273.86635 L211.989667,364.374925 L125.384905,364.374925 C121.761062,364.37493 118.401841,362.475309 116.531355,359.368293 C114.66087,356.261276 114.552298,352.400632 116.245203,349.193195 L207.906709,175.526833 C210.215992,171.151551 210.63794,166.021372 209.074626,161.326914 C207.511312,156.632456 204.098666,152.781899 199.628699,150.668887 L194.21769,148.111035 C185.491356,143.985973 175.066643,147.436675 170.517131,155.956198 L58.72384,365.304062 C56.8201542,368.868965 55.8241939,372.848855 55.8241943,376.891142 C55.8241943,390.465461 66.8169336,401.46962 80.3771647,401.46962 L211.989667,401.46962 L211.989667,458.701481 C211.989667,464.463803 214.276365,469.990116 218.346713,474.064692 C222.417062,478.139269 227.937639,480.428343 233.69398,480.428343 L233.694023,480.428343 C245.680984,480.428343 255.398336,470.700896 255.398336,458.701481 L255.398336,401.469655 L286.10208,401.469655 C291.016035,401.469655 295.728728,399.515566 299.203419,396.037265 C302.67811,392.558964 304.630171,387.841376 304.630171,382.922316 C304.630184,378.003253 302.678134,373.285656 299.203449,369.807345 C295.728764,366.329034 291.016073,364.374934 286.102115,364.374925 Z" id="Path" stroke="#3F3D56" stroke-width="0.864"></path>
            <path d="M862.061556,364.374925 L831.357821,364.374925 L831.357821,273.86635 C831.357821,263.855679 823.250991,255.740427 813.250709,255.740427 L806.05622,255.740427 C801.253916,255.740427 796.648301,257.650117 793.252559,261.049387 C789.856817,264.448657 787.949109,269.059056 787.949109,273.86635 L787.949109,364.374925 L701.344347,364.374925 C697.720503,364.37493 694.361282,362.475309 692.490797,359.368293 C690.620311,356.261276 690.511739,352.400632 692.204644,349.193195 L783.866151,175.526833 C786.175433,171.151551 786.597381,166.021372 785.034067,161.326914 C783.470753,156.632456 780.058107,152.781899 775.58814,150.668887 L770.177131,148.111035 C761.450797,143.985973 751.026085,147.436675 746.476573,155.956198 L634.683281,365.304062 C632.779596,368.868965 631.783635,372.848855 631.783636,376.891142 C631.783636,390.465461 642.776375,401.46962 656.336606,401.46962 L787.949109,401.46962 L787.949109,458.701481 C787.949109,470.700896 797.666461,480.428343 809.653422,480.428343 C821.640383,480.428343 831.357734,470.700896 831.357734,458.701481 L831.357734,401.469655 L862.06147,401.469655 C866.975425,401.469655 871.688117,399.515566 875.162808,396.037265 C878.637499,392.558964 880.58956,387.841376 880.58956,382.922316 C880.589589,372.678917 872.294324,364.374973 862.061556,364.374925 Z" id="Path" stroke="#3F3D56" stroke-width="0.864"></path>
            <path d="M466.618792,134.917652 C392.357994,134.917652 339.039529,182.61085 339.039529,293.894989 C339.039529,420.017003 392.357977,453.402251 466.618792,453.402251 C540.879607,453.402251 597.374337,416.837463 597.374337,293.894989 C597.374294,162.47372 540.87959,134.917652 466.618792,134.917652 Z M467.106985,411.538216 C415.672231,411.538216 388.80079,381.331426 388.80079,293.976434 C388.80079,216.898492 416.772205,176.251762 468.207002,176.251762 C519.6418,176.251762 547.613215,202.951038 547.613215,293.976434 C547.613094,379.129184 518.541697,411.538216 467.106942,411.538216 L467.106985,411.538216 Z" id="Shape" stroke="#3F3D56" stroke-width="0.864"></path>
            <ellipse id="Oval" fill="#2F2E41" cx="407.093969" cy="15.7858507" rx="11.1473883" ry="11.1589694"></ellipse>
            <ellipse id="Oval" fill="#2F2E41" cx="434.28271" cy="40.5533138" rx="31.2670504" ry="40.5533138"></ellipse>
            <path d="M434.28271,68.8589797 C418.619383,68.8589797 405.646651,53.920718 403.370321,34.4294942 C403.133518,36.4621509 403.015097,38.5068815 403.015659,40.5533138 C403.015659,62.9502837 417.01441,81.1066276 434.28271,81.1066276 C451.55101,81.1066276 465.549769,62.9503096 465.549769,40.5533138 C465.55033,38.5068815 465.43191,36.4621509 465.195107,34.4294942 C462.918776,53.920718 449.946071,68.8589797 434.28271,68.8589797 Z" id="Path" fill="#000000" opacity="0.1"></path>
            <path d="M497.907591,159.315406 C497.236121,162.077604 494.340822,164.289775 491.134392,165.835376 C484.393102,169.084865 476.077894,170.054534 468.012416,170.380017 C465.954875,170.505186 463.890661,170.467008 461.839142,170.265843 C457.863702,169.880926 454.134224,168.164751 451.253963,165.394914 C450.83602,165.12223 450.587135,164.653901 450.594802,164.154564 C450.602468,163.655228 450.865614,163.194776 451.291731,162.935079 C455.585589,158.213381 462.751062,155.318222 469.969356,153.233641 C475.442655,151.652992 484.987835,147.558751 490.957475,148.111277 C496.739598,148.646487 498.755415,155.827777 497.907591,159.315406 Z" id="Path" fill="#3F3D56"></path>
            <path d="M497.907591,159.315406 C497.236121,162.077604 494.340822,164.289775 491.134392,165.835376 C484.393102,169.084865 476.077894,170.054534 468.012416,170.380017 C465.954875,170.505186 463.890661,170.467008 461.839142,170.265843 C457.863702,169.880926 454.134224,168.164751 451.253963,165.394914 C450.83602,165.12223 450.587135,164.653901 450.594802,164.154564 C450.602468,163.655228 450.865614,163.194776 451.291731,162.935079 C455.585589,158.213381 462.751062,155.318222 469.969356,153.233641 C475.442655,151.652992 484.987835,147.558751 490.957475,148.111277 C496.739598,148.646487 498.755415,155.827777 497.907591,159.315406 Z" id="Path" fill="#000000" opacity="0.1"></path>
            <path d="M412.194322,138.67116 C410.136504,142.708341 409.763969,147.39819 411.158574,151.710183 C412.577022,155.98958 415.232064,159.751421 418.787538,162.519407 C427.509934,169.518321 439.514461,170.481442 450.692739,170.384273 C460.4894,170.298943 470.272216,169.62774 479.988896,168.374251 C483.244994,168.085393 486.44467,167.341689 489.494787,166.164786 C493.143209,164.584691 496.349216,161.686418 497.648053,157.925463 C498.94689,154.164508 498.024999,149.559198 494.940237,147.049248 C492.229803,144.843875 488.492063,144.540526 485.005496,144.330783 L465.056399,143.130698 C467.027319,141.134039 469.651606,140.004742 472.051705,138.553205 C475.235963,136.627447 477.351483,133.394125 479.666766,130.47908 C483.234218,126.211086 487.115633,122.216234 491.278517,118.527966 C491.927754,122.25626 494.283889,125.317794 497.056768,127.890263 C499.829648,130.462733 503.026046,132.533743 505.908108,134.983025 C512.8885,140.915231 517.914934,148.966703 525.25626,154.444936 C530.306424,153.116547 535.027603,150.757071 539.123224,147.514725 L536.270022,142.341061 C536.03227,141.808614 535.661992,141.346155 535.194622,140.997938 C534.387029,140.500588 533.34575,140.756857 532.40803,140.616111 C529.901548,140.239855 528.80688,137.343113 527.82333,135.004813 C525.123221,128.585334 519.953475,123.604737 515.538277,118.221347 C512.279485,114.247435 509.388592,109.984994 506.901336,105.48672 C505.418161,102.803951 504.060308,100.010615 502.047516,97.6993277 C500.034724,95.3880408 497.21433,93.5708866 494.151308,93.5643908 C491.444883,93.5586648 488.948615,94.9340939 486.621702,96.317619 C479.534401,100.531756 472.715321,105.182335 466.203819,110.242514 C462.796175,112.890754 459.409666,115.688674 455.412293,117.312614 C453.729554,117.996233 451.955675,118.463457 450.34092,119.295295 C447.512741,120.752229 445.366348,123.217314 443.055792,125.405483 C434.814763,133.210122 423.531769,138.266801 412.194322,138.67116 Z" id="Path" fill="#3F3D56"></path>
            <path d="M453.907525,83.1206719 C453.814887,85.5063336 453.307948,87.8576243 452.409427,90.0691763 C451.488803,92.2988587 449.68348,94.0449485 447.425773,94.889315 C445.839806,95.3146458 444.177294,95.3686567 442.567114,95.0471611 C441.163048,94.9003598 439.810021,94.4389668 438.608417,93.6972136 C436.737866,92.4098372 435.805278,90.1127183 435.465417,87.8645906 C435.125556,85.6191615 435.277795,83.3248018 435.060303,81.0630683 C434.848388,79.2362401 434.501233,77.427689 434.021703,75.6523368 C433.874873,75.0617267 433.725331,74.4738498 433.578492,73.8859557 C433.434419,73.2980702 433.293033,72.710176 433.162525,72.1223078 C433.042879,71.5697904 432.931433,71.0145743 432.836248,70.456625 C432.75742,69.9857769 432.686766,69.5121868 432.635052,69.0358894 C432.587455,67.6238605 432.352482,66.2244386 431.936313,64.8744243 C431.545694,63.9988691 431.056775,63.1706742 430.478998,62.4058363 C430.231575,62.0520169 429.992308,61.6982061 429.772068,61.3307636 C429.135132,60.3758903 428.8391,59.2336316 428.931977,58.0892238 C428.958137,57.9123057 429.000919,57.7382541 429.059754,57.5693845 C429.081494,57.5040629 429.105956,57.438776 429.1332,57.3761531 C429.629783,57.2411917 430.02768,56.8693375 430.196261,56.3826718 C430.289765,55.867773 430.245684,55.337283 430.068484,54.8449248 C429.865321,54.1569382 429.587227,53.4933917 429.239211,52.8662399 C429.01084,52.4525395 428.235969,51.7067993 428.230525,51.2332006 C428.219638,50.2806059 430.079371,49.5130861 430.832502,49.137487 C433.131361,47.9851372 435.694759,47.4647862 438.260451,47.6296676 C439.905353,47.741247 441.688953,48.2474892 442.59708,49.6273902 C443.412752,50.8711987 443.303941,52.4824497 443.651967,53.9276895 C443.688616,54.137759 443.777433,54.3352346 443.910252,54.5019606 C444.087689,54.6638119 444.310953,54.7665169 444.549206,54.7958904 C444.951982,54.8761017 445.364825,54.8926385 445.772715,54.8448989 L445.775437,54.8448989 C445.88325,54.8363429 445.990405,54.8208833 446.096245,54.798615 C446.731411,54.6813038 447.331849,54.4217132 447.852627,54.039269 C448.189789,53.9494519 448.529652,53.8759651 448.872218,53.8188087 C448.886057,53.8174004 448.899729,53.8146632 448.913044,53.8106349 C450.2752,58.1136416 450.451934,62.7269257 451.566666,67.1088684 C452.118576,69.2889413 452.909778,71.4418113 453.021224,73.6844898 C453.02939,73.7824635 453.032111,73.8831705 453.034833,73.9838688 C453.051164,74.7051221 452.994076,75.4318073 453.023946,76.1503446 C453.034352,76.4739033 453.070734,76.7961005 453.13274,77.1138205 C453.25465,77.6248469 453.40625,78.1283152 453.586769,78.6216572 L453.594934,78.6461442 C453.646579,78.8040075 453.695536,78.9645955 453.73632,79.1251662 C453.766191,79.2421949 453.793408,79.3565163 453.815183,79.473545 L453.81787,79.4817015 C454.019152,80.6843785 454.049337,81.9095244 453.907525,83.1206719 Z" id="Path" fill="#FBBEBE"></path>
            <ellipse id="Oval" fill="#FBBEBE" cx="434.826488" cy="38.9202918" rx="16.0413613" ry="16.0580268"></ellipse>
            <path d="M536.670099,126.412017 C536.205147,122.030973 534.649587,117.836719 532.145883,114.213377 C532.561876,116.690113 532.978779,119.16595 533.396592,121.640886 C532.335265,121.948294 531.192858,121.596668 530.487407,120.745457 C529.811942,119.901165 529.295131,118.941181 528.962091,117.912159 C527.139569,113.383249 524.756447,109.101213 521.868594,105.166435 C511.656481,104.314547 501.561267,100.07687 492.580819,95.1369783 C483.597684,90.1998022 475.190911,84.2801212 466.327388,79.1333919 C464.790891,78.2035708 463.189919,77.3849622 461.53673,76.6838329 C458.763496,75.5706329 455.650393,74.9936545 453.021198,73.6845158 C452.844498,73.5974146 452.667798,73.5048901 452.49375,73.4096237 C451.899793,73.0862621 451.337274,72.7081243 450.813509,72.2801279 C450.530414,72.0500219 450.261653,71.8027874 450.008732,71.539811 C448.696909,70.0121174 447.656783,68.2703445 446.933665,66.3903657 C445.522587,63.2658633 445.019566,59.4963017 443.611209,56.3717906 C444.258511,55.7662131 444.9858,55.2524613 445.772706,54.8449248 L445.775428,54.8449248 C445.889596,54.7850352 446.003799,54.7278788 446.120723,54.6734557 C446.677954,54.4107416 447.257567,54.1985072 447.852619,54.039295 C448.18978,53.9494778 448.529644,53.875991 448.872209,53.8188347 C448.886048,53.8174264 448.89972,53.8146892 448.913036,53.8106608 C450.501649,53.5515629 452.129276,53.6804164 453.657457,54.1862599 C455.892365,54.9428985 457.776524,56.4534426 459.65531,57.8823347 C462.70752,60.0348447 465.635031,62.3592976 468.423674,64.8444449 C469.973425,66.3304415 471.387226,67.9634808 473.053893,69.3134715 C474.438852,70.3834845 475.899041,71.3521968 477.423114,72.2120817 C486.441667,77.5901438 495.461081,82.9673092 504.481356,88.3435779 C507.53464,90.1643995 510.590655,91.9852124 513.576041,93.9121728 C518.111101,96.8407278 522.483009,100.014221 526.852256,103.185008 C529.427027,105.052087 532.000908,106.920075 534.573899,108.788971 C535.418124,109.328058 536.159327,110.013819 536.762562,110.813922 C537.29558,111.722368 537.626656,112.735182 537.73322,113.78332 C538.37908,118.017894 538.01478,122.345361 536.670099,126.412017 Z" id="Path" fill="#FBBEBE"></path>
            <path d="M457.885275,95.1968506 C456.80317,100.055091 451.89831,102.991845 449.334394,107.259424 C446.147881,112.55586 447.447478,118.712323 448.643821,124.778995 C446.457836,126.665149 444.270945,128.551292 442.083146,130.437424 C440.875985,131.474387 439.668816,132.516781 438.369184,133.434016 C436.474167,134.705074 434.493739,135.843632 432.442029,136.841567 C430.50619,137.837721 428.570354,138.834769 426.634521,139.832711 C424.834934,140.845646 422.928085,141.654461 420.949346,142.244151 C417.134756,143.223957 413.083656,142.538081 409.309858,141.403136 C408.864823,141.286308 408.437023,141.111537 408.037409,140.883297 C407.80199,140.74278 407.596821,140.556821 407.433829,140.336228 C407.061743,139.668502 406.926618,138.894282 407.050489,138.139816 C407.433829,131.781931 408.986294,125.557404 410.533349,119.379144 C411.360262,115.672632 412.471961,112.0356 413.858527,108.500507 C415.218561,105.471439 416.781871,102.538006 418.537738,99.7203263 C420.475652,96.1751171 422.771499,92.8381053 425.389281,89.7616148 C426.663716,88.5775287 427.736383,87.1930081 428.564916,85.6627381 C429.530123,83.4581696 429.157661,80.9296919 429.353388,78.5291587 C429.503173,76.7255806 429.981422,74.9646699 430.764501,73.3334469 L430.764501,73.3307223 C431.183358,72.4520783 431.687886,71.6169967 432.270738,70.8376387 C432.534495,71.4527444 432.798229,72.0669419 433.06194,72.6802312 C433.235956,73.0830418 433.408143,73.4849586 433.578501,73.8859816 C433.801463,74.403105 434.022605,74.9184119 434.241926,75.4319024 C434.875414,76.9070755 435.508012,78.3813289 436.139721,79.8546625 C436.822374,81.7103751 437.79515,83.4457646 439.021688,84.9959684 C440.16223,86.6107261 442.06648,87.5067859 444.036268,87.3556193 C446.006057,87.2044526 447.751609,86.0282977 448.632942,84.2583761 C449.546823,82.6342654 450.208724,80.8805061 450.595956,79.0572151 C451.132898,76.8371721 451.206948,74.5301662 450.813483,72.2801971 C450.158223,67.9472369 448.317543,63.5217696 446.979841,59.4963709 C446.435358,58.1541958 446.120115,56.7299524 446.047287,55.2831641 C446.049993,55.120586 446.066358,54.958524 446.09621,54.7986929 C446.104375,54.7578755 446.112541,54.7143249 446.120698,54.6735076 C446.677928,54.4107935 447.257542,54.1985591 447.852593,54.0393469 C448.189754,53.9495297 448.529618,53.8760429 448.872183,53.8188866 C450.049481,60.1985519 451.228568,66.5782143 452.409444,72.9578738 C452.436662,73.107572 452.466559,73.2572615 452.493742,73.4096756 C452.662311,74.3241603 452.833602,75.2386623 453.023912,76.1504224 C453.195237,76.9778146 453.380103,77.8024908 453.586734,78.6217351 L453.594899,78.646222 C453.665597,78.9238733 453.739007,79.1987308 453.815148,79.4736228 L453.817835,79.4817794 C454.027197,80.2329775 454.261012,80.9787177 454.524731,81.7135767 C456.123449,86.1417687 458.9103,90.5999141 457.885275,95.1968506 Z" id="Path" fill="#C51EA1"></path>
            <path d="M522.987136,163.470496 C522.936612,164.406377 523.11766,165.340271 523.514213,166.189299 C524.518181,168.026062 526.927084,168.443594 529.011602,168.615366 C541.188142,169.617305 553.438664,169.243672 565.531685,167.501526 C566.187797,167.4566 566.824349,167.258845 567.390588,166.924029 C569.109937,165.717335 568.050116,162.776472 566.172688,161.835009 C564.295259,160.893547 562.067316,161.120434 560.007363,160.712745 C557.960806,160.197065 556.011882,159.350954 554.237225,158.207681 C550.059589,155.805009 545.942921,153.300069 541.887221,150.692863 C539.472581,149.140576 536.622748,147.483932 533.903423,148.404299 C526.537177,150.898836 522.938654,155.515986 522.987136,163.470496 Z" id="Path" fill="#FBBEBE"></path>
            <path d="M433.225066,71.7820855 L433.225066,71.7848101 C433.206057,71.8991142 433.186996,72.0107024 433.162534,72.1222991 C433.132638,72.3074 433.097289,72.4951649 433.06194,72.6801966 C432.724801,74.408485 432.31153,76.1285909 431.835727,77.8378243 C430.530652,82.5599634 428.782435,87.2059083 427.047792,91.7838071 C422.393074,104.058658 417.737455,116.33442 413.080934,128.611093 C411.906366,131.702943 410.734545,134.797509 409.399573,137.826762 C408.953719,138.836522 408.494194,139.85443 408.037409,140.883245 C406.400647,144.565688 404.829156,148.36791 404.307126,152.287153 C403.820416,154.866536 403.764373,157.508861 404.141278,160.1066 C404.663308,162.675886 406.221225,165.185283 408.660042,166.135153 C409.850915,166.600569 411.555618,167.223831 411.229366,168.462208 C411.052666,169.142627 410.280482,169.474684 409.587161,169.588988 C407.733642,169.884707 405.844728,169.340201 404.432181,168.102991 C403.129827,166.946267 402.129307,165.147216 400.397377,164.953985 C399.198348,164.823376 398.094503,165.541862 396.996067,166.04537 C392.515365,168.094817 387.295106,166.660476 382.588737,165.204372 C382.958503,163.296458 384.872602,162.039035 386.773093,161.657996 C388.673583,161.27424 390.639319,161.546416 392.577845,161.494701 C393.198666,161.52784 393.81466,161.369167 394.342393,161.040174 C394.815471,160.605456 395.147029,160.038375 395.293999,159.412593 C396.542703,155.708683 397.471443,151.904295 398.069989,148.041337 C398.695309,144.005057 398.95635,139.90618 399.848112,135.9189 C400.541442,132.807986 401.612694,129.795081 402.531639,126.741323 C404.308726,120.453801 405.767902,114.08056 406.903608,107.645886 C407.477766,104.972528 407.889077,102.266707 408.135264,99.5433906 C408.290233,97.2843817 408.216814,95.0144744 408.434306,92.7636307 C408.799352,89.8352771 409.409628,86.942819 410.258691,84.1167999 C411.090647,81.0331177 411.92172,77.9512433 412.751909,74.8711766 C413.983574,70.3123328 415.304902,65.576588 418.426188,62.0329273 C420.617471,59.511296 423.754724,58.0115079 427.091271,57.8905172 C427.710211,57.8897628 428.327398,57.9563783 428.931951,58.0891892 C429.032519,58.1136762 429.133148,58.1381804 429.233707,58.165392 C429.892521,58.3378187 430.524653,58.5997232 431.112492,58.9438103 C432.074951,58.3314205 432.564328,58.5464316 433.203292,59.4908611 C433.763421,60.4903673 434.027494,61.6289345 433.964589,62.7732442 C434.018445,65.7933527 433.770707,68.8112911 433.225066,71.7820855 Z" id="Path" fill="#FBBEBE"></path>
            <path d="M434.28271,75.3910591 L434.241926,75.4318765 L434.021712,75.6523368 L431.835727,77.8378676 L430.764501,73.3334556 L427.091306,57.8905085 C427.710246,57.8897541 428.327433,57.9563696 428.931986,58.0891806 C428.958145,57.9122624 429.000927,57.7382108 429.059763,57.5693413 L429.233742,58.165392 L430.479007,62.4058017 L432.836257,70.4565904 L433.225083,71.7820596 L433.225083,71.7847842 L434.28271,75.3910591 Z" id="Path" fill="#C51EA1"></path>
            <path d="M448.15421,26.1241313 C448.15051,29.0120661 447.000256,31.7801036 444.956766,33.8186441 C444.590331,34.1860225 444.197554,34.5260903 443.781576,34.8361279 C441.905368,36.2519805 439.619911,37.018313 437.270308,37.0194098 L424.226473,37.0194098 C418.224906,37.0101359 413.364583,32.1372467 413.364583,26.1294378 C413.364583,20.1216289 418.224906,15.2487397 424.226473,15.2394658 L437.270317,15.2394658 C443.270738,15.2551039 448.132783,20.1174941 448.15421,26.1241313 Z" id="Path" fill="#2F2E41"></path>
            <ellipse id="Oval" fill="#2F2E41" cx="460.383902" cy="15.7858507" rx="11.1473883" ry="11.1589694"></ellipse>
            <path d="M460.112017,4.62688995 C459.97528,4.62688995 459.839795,4.63232188 459.704181,4.63720889 C465.697557,4.85532501 470.443725,9.78228921 470.443725,15.785855 C470.443725,21.7894208 465.697557,26.716385 459.704181,26.9345011 C459.839786,26.9393881 459.975271,26.94482 460.112017,26.94482 C466.268547,26.94482 471.259401,21.9487812 471.259401,15.785855 C471.259401,9.62292877 466.268547,4.62688995 460.112017,4.62688995 Z" id="Path" fill="#000000" opacity="0.1"></path>
            <path d="M407.093969,4.62688995 C407.230706,4.62688995 407.366191,4.63232188 407.501805,4.63720889 C401.508429,4.85532501 396.762261,9.78228921 396.762261,15.785855 C396.762261,21.7894208 401.508429,26.716385 407.501805,26.9345011 C407.366147,26.9393881 407.230706,26.94482 407.093969,26.94482 C400.941271,26.9393975 395.956395,21.9449473 395.956395,15.785855 C395.956395,9.62676273 400.941271,4.63231248 407.093969,4.62688995 Z" id="Path" fill="#000000" opacity="0.1"></path>
            <path d="M443.781576,34.8361279 C441.905368,36.2519805 439.619911,37.018313 437.270308,37.0194098 L424.226473,37.0194098 C421.876851,37.018313 419.591375,36.2519811 417.715145,34.8361279 L443.781576,34.8361279 Z" id="Path" fill="#000000" opacity="0.1"></path>
            <path d="M528.014356,115.693155 C528.014356,115.693155 530.82452,123.799197 533.396583,121.640886 L531.346533,111.045316 L528.014356,115.693155 Z" id="Path" fill="#FBBEBE"></path>
            <path d="M869.990331,362.892509 C877.168088,365.504604 885.211086,363.293355 890.049201,357.377755 C894.887316,351.462156 895.465088,343.132726 891.490137,336.604537 C887.515186,330.076347 879.85467,326.773559 872.385159,328.367532 L872.835273,337.633128 L868.456098,329.692431 C864.15818,331.713995 860.837853,335.360994 859.224771,339.831987 C858.651902,341.398117 858.303642,343.037614 858.190379,344.701576 C857.622392,352.723166 862.439065,360.148601 869.990331,362.892509 Z" id="Path" fill="#C51EA1"></path>
            <path d="M891.658656,470.357758 C890.112801,462.477764 896.811302,455.49191 903.427891,450.951136 C910.044479,446.410361 917.7756,441.948842 920.033172,434.242894 C923.277716,423.168094 913.613209,413.025657 906.091017,404.279252 C900.510271,397.788426 895.717719,390.65833 891.813651,383.038168 C890.248779,379.982707 888.810543,376.78861 888.398706,373.379831 C887.805607,368.4708 889.381081,363.585842 890.968333,358.903274 C896.255945,343.304237 901.909323,327.835904 907.928466,312.498274" id="Path" stroke="#3F3D56" stroke-width="0.864"></path>
            <path d="M870.730934,360.507009 C877.908691,363.119104 885.951688,360.907855 890.789804,354.992255 C895.627919,349.076655 896.205691,340.747226 892.23074,334.219037 C888.255789,327.690847 880.595273,324.388058 873.125761,325.982032 L873.575876,335.247627 L869.196692,327.30693 C864.898777,329.328496 861.578454,332.975495 859.965374,337.446487 C859.392505,339.012617 859.044245,340.652114 858.930982,342.316075 C858.362992,350.337666 863.179666,357.763103 870.730934,360.507009 Z" id="Path" stroke="#3F3D56" stroke-width="0.864"></path>
            <path d="M889.460661,309.298477 C891.548148,303.532707 896.427308,299.229596 902.404213,297.883082 L903.884874,306.691617 L906.629992,297.440328 C914.450652,297.556426 921.299303,302.72006 923.570016,310.212489 C925.84073,317.704918 923.0126,325.807368 916.574685,330.253764 C910.13677,334.70016 901.565937,334.470491 895.374872,329.685683 C889.183808,324.900875 886.792752,316.658569 889.460635,309.298477 L889.460661,309.298477 Z" id="Path" fill="#C51EA1"></path>
            <path d="M890.448126,306.117804 C892.535616,300.352039 897.414776,296.048932 903.391678,294.702418 L904.872339,303.510953 L907.617456,294.259655 C915.438116,294.375754 922.286768,299.539387 924.557481,307.031816 C926.828194,314.524245 924.000065,322.626695 917.56215,327.073091 C911.124235,331.519487 902.553401,331.289818 896.362337,326.50501 C890.171273,321.720202 887.780217,313.477896 890.4481,306.117804 L890.448126,306.117804 Z" id="Path" stroke="#3F3D56" stroke-width="0.864"></path>
            <path d="M902.934271,404.45778 C911.527903,407.578257 921.092683,403.747505 925.164564,395.554415 C929.236446,387.361325 926.519284,377.413885 918.849384,372.434752 L916.740033,379.544061 L915.244303,370.631697 C915.229516,370.624712 915.214204,370.618899 915.198508,370.614311 C909.158135,368.416752 902.405355,369.613372 897.485646,373.753102 C892.565936,377.892832 890.227337,384.346227 891.351389,390.680665 C892.475441,397.015104 896.891232,402.267434 902.934219,404.45778 L902.934271,404.45778 Z" id="Path" fill="#C51EA1"></path>
            <path d="M903.789914,401.236091 C912.383546,404.356568 921.948327,400.525816 926.020208,392.332726 C930.092089,384.139636 927.374927,374.192196 919.705028,369.213063 L917.595677,376.322372 L916.099947,367.410008 C916.085159,367.403024 916.069847,367.397211 916.054152,367.392622 C910.013778,365.195063 903.260999,366.391683 898.34129,370.531413 C893.42158,374.671143 891.082981,381.124538 892.207033,387.458976 C893.331084,393.793414 897.746875,399.045745 903.789862,401.236091 L903.789914,401.236091 Z" id="Path" stroke="#3F3D56" stroke-width="0.864"></path>
            <path d="M884.212761,434.352978 C885.683773,442.731973 892.816337,448.934427 901.310097,449.220764 C909.803857,449.507101 917.33711,443.799054 919.367915,435.538111 C921.398721,427.277167 917.371975,418.721393 909.715477,415.029224 C902.05898,411.337055 892.865576,413.517717 887.678141,420.256449 L895.69028,432.32826 L884.742697,425.920933 C883.893857,428.64854 883.712111,431.540381 884.212761,434.352978 Z" id="Path" fill="#C51EA1"></path>
            <path d="M884.953363,431.967477 C886.424375,440.346472 893.55694,446.548926 902.0507,446.835264 C910.54446,447.121601 918.077712,441.413554 920.108518,433.152611 C922.139324,424.891667 918.112577,416.335893 910.45608,412.643724 C902.799583,408.951555 893.606179,411.132217 888.418744,417.870949 L896.430883,429.942768 L885.4833,423.535433 C884.634456,426.263039 884.452709,429.154881 884.953363,431.967477 Z" id="Path" stroke="#3F3D56" stroke-width="0.864"></path>
            <path d="M7.7829822,406.745073 C12.4989071,408.461306 17.7833346,407.008494 20.9620878,403.121829 C24.140841,399.235165 24.5204514,393.762552 21.9088179,389.4734 C19.2971843,385.184247 14.2640537,383.014264 9.35643471,384.061568 L9.65217639,390.149233 L6.77497028,384.932053 C3.95115681,386.260266 1.76964312,388.656421 0.709824953,391.593954 C0.333438944,392.622932 0.104624807,393.700114 0.0302075233,394.79337 C-0.342939019,400.063673 2.82169296,404.94228 7.7829822,406.745073 Z" id="Path" fill="#C51EA1"></path>
            <path d="M22.0194699,477.351699 C21.0038111,472.174402 25.4048554,467.584601 29.7520688,464.60119 C34.0992822,461.61778 39.1787689,458.686526 40.6620481,453.623577 C42.7937782,446.347228 36.4439943,439.683467 31.5017895,433.936916 C27.8351382,429.672324 24.6863473,424.98772 22.121308,419.981133 C21.0061444,418.014579 20.2465906,415.866373 19.8776218,413.635435 C19.4879309,410.410113 20.5230743,407.200611 21.5659164,404.12407 C25.0399717,393.875215 28.7543421,383.712238 32.7090276,373.63514" id="Path" stroke="#3F3D56" stroke-width="0.864"></path>
            <path d="M8.26957736,405.177753 C12.9854962,406.893971 18.2699085,405.441153 21.4486514,401.554494 C24.6273942,397.667835 25.0070038,392.195236 22.3953796,387.906091 C19.7837554,383.616945 14.7506408,381.446959 9.84302987,382.494249 L10.1387715,388.581922 L7.2615568,383.364698 C4.43774275,384.69291 2.25622881,387.089066 1.19641147,390.026599 C0.820029507,391.055576 0.591215482,392.132754 0.516794041,393.226007 C0.143622749,398.496329 3.30826456,403.374964 8.26957736,405.177753 Z" id="Path" stroke="#3F3D56" stroke-width="0.864"></path>
            <path d="M20.5753412,371.532818 C21.9468584,367.744602 25.152557,364.917379 29.0794935,364.032696 L30.0523123,369.820064 L31.8559243,363.741793 C36.9942253,363.81808 41.4938966,367.210677 42.9857888,372.133326 C44.4776809,377.055975 42.6195523,382.379416 38.3897375,385.300771 C34.1599228,388.222126 28.5287459,388.071234 24.4611123,384.927541 C20.3934787,381.783849 18.8225079,376.368522 20.5753412,371.532818 Z" id="Path" fill="#C51EA1"></path>
            <path d="M21.224129,369.443055 C22.5956486,365.654842 25.8013468,362.827623 29.7282813,361.942942 L30.7011,367.73031 L32.5047121,361.652039 C37.6430136,361.728328 42.1426844,365.120926 43.6345748,370.043576 C45.1264652,374.966226 43.2683339,380.289667 39.0385172,383.211021 C34.8087004,386.132374 29.1775229,385.981478 25.1098909,382.837783 C21.0422589,379.694087 19.4712917,374.278758 21.224129,369.443055 Z" id="Path" stroke="#3F3D56" stroke-width="0.864"></path>
            <path d="M29.4277527,434.054213 C35.0739308,436.104448 41.3581879,433.587581 44.0334978,428.204561 C46.7088076,422.821541 44.9235728,416.285876 39.8842908,413.014499 L38.4984083,417.685441 L37.5156874,411.829862 C37.5059775,411.825277 37.4959236,411.821459 37.4856182,411.818445 C33.5167675,410.37372 29.0793803,411.159492 25.8464904,413.879501 C22.6136006,416.59951 21.0768916,420.840075 21.8157509,425.002371 C22.5546101,429.164666 25.456666,432.615658 29.4277527,434.054213 Z" id="Path" fill="#C51EA1"></path>
            <path d="M29.9899012,431.937507 C35.6360793,433.987742 41.9203365,431.470875 44.5956463,426.087855 C47.2709561,420.704835 45.4857214,414.16917 40.4464393,410.897793 L39.0605569,415.568735 L38.077836,409.713148 C38.068126,409.708562 38.0580722,409.704744 38.0477667,409.70173 C31.9138991,407.4743 25.1376023,410.64626 22.9124842,416.7865 C20.6873661,422.92674 23.8560336,429.710077 29.9899012,431.937507 Z" id="Path" stroke="#3F3D56" stroke-width="0.864"></path>
            <path d="M17.1273892,453.695904 C18.0938816,459.201055 22.780115,463.276172 28.3606712,463.464289 C33.9412274,463.652407 38.8907042,459.902105 40.224969,454.474511 C41.5592337,449.046918 38.9135755,443.425623 33.8831113,440.999812 C28.8526471,438.574001 22.8124157,440.00675 19.4041862,444.434227 L24.6683051,452.365635 L17.4755447,448.155888 C16.9178476,449.94798 16.7984447,451.847976 17.1273892,453.695904 Z" id="Path" fill="#C51EA1"></path>
            <path d="M17.6139671,452.128585 C18.5804595,457.633736 23.2666929,461.708852 28.8472491,461.89697 C34.4278053,462.085087 39.3772821,458.334785 40.7115469,452.907191 C42.0458116,447.479598 39.4001534,441.858303 34.3696892,439.432492 C29.339225,437.006681 23.2989936,438.43943 19.8907641,442.866908 L25.154883,450.798315 L17.962114,446.588568 C17.4044197,448.380661 17.2850198,450.280657 17.6139671,452.128585 Z" id="Path" stroke="#3F3D56" stroke-width="0.864"></path>
            <ellipse id="Oval" fill="#2F2E41" cx="415.566004" cy="276.02127" rx="14.689013" ry="19.0290598"></ellipse>
            <ellipse id="Oval" fill="#2F2E41" cx="495.491516" cy="276.453749" rx="14.689013" ry="19.0290598"></ellipse>
            <path d="M484.258741,332.675971 C484.258741,341.273646 472.265594,348.245202 457.472894,348.245202 C442.680194,348.245202 430.687047,341.273646 430.687047,332.675971 C430.687047,325.228689 439.681907,319.000997 451.700976,317.478672 C453.614515,317.226035 455.54279,317.10178 457.472894,317.10674 C460.707001,317.096296 463.932319,317.444401 467.089877,318.144689 C477.13025,320.384928 484.258741,326.050398 484.258741,332.675971 Z" id="Path" fill="#2F2E41"></path>
            <ellipse id="Oval" stroke="#3F3D56" stroke-width="0.864" cx="419.022242" cy="271.696484" rx="14.689013" ry="19.0290598"></ellipse>
            <ellipse id="Oval" stroke="#3F3D56" stroke-width="0.864" cx="498.947754" cy="272.128962" rx="14.689013" ry="19.0290598"></ellipse>
            <ellipse id="Oval" stroke="#3F3D56" stroke-width="0.864" cx="460.929132" cy="328.351185" rx="26.7858473" ry="15.5692308"></ellipse>
            <path d="M467.409579,319.442125 C467.41658,320.529829 467.008638,321.579204 466.26902,322.37606 C465.562825,323.147788 464.566786,323.589259 463.521311,323.59392 L454.880715,323.59392 C452.664231,323.516681 450.926595,321.661277 450.992447,319.442125 C450.987937,318.598816 451.234613,317.773297 451.700976,317.070983 C453.613086,316.801605 455.541948,316.669029 457.472894,316.674262 C460.710886,316.663585 463.938839,317.0352 467.089877,317.781407 C467.303154,318.308948 467.411744,318.873023 467.409579,319.442125 Z" id="Path" fill="#FFFFFF"></path>
            <ellipse id="Oval" fill="#FFFFFF" cx="419.022242" cy="266.50674" rx="4.32029795" ry="4.32478632"></ellipse>
            <ellipse id="Oval" fill="#FFFFFF" cx="499.379784" cy="266.50674" rx="4.32029795" ry="4.32478632"></ellipse>
            <ellipse id="Oval" fill="#7138E0" opacity="0.3" cx="503.700082" cy="307.159732" rx="4.32029795" ry="4.32478632"></ellipse>
            <ellipse id="Oval" fill="#7138E0" opacity="0.3" cx="398.284812" cy="307.159732" rx="4.32029795" ry="4.32478632"></ellipse>
        </g>
    </g>
</svg>