<?xml version="1.0" encoding="UTF-8"?>
<svg width="400px" height="400px" viewBox="0 0 400 400" version="1.1" xmlns="http://www.w3.org/2000/svg" xmlns:xlink="http://www.w3.org/1999/xlink">
    <!-- Generator: Sketch 52.6 (67491) - http://www.bohemiancoding.com/sketch -->
    <title>facebook BLACK</title>
    <desc>Created with Sketch.</desc>
    <g id="Page-2" stroke="none" stroke-width="1" fill="none" fill-rule="evenodd">
        <g id="Artboard" transform="translate(-673.000000, -267.000000)">
            <g id="facebook-BLACK" transform="translate(673.000000, 267.000000)">
                <path d="M199.532877,0 C309.738356,0 399.067123,89.3410959 399.067123,199.534247 C399.067123,309.739726 309.738356,399.067123 199.532877,399.067123 C89.3273973,399.067123 0,309.738356 0,199.534247 C0,89.3410959 89.3287671,0 199.532877,0 Z" id="Path" fill="#000000"></path>
                <path d="M223.827397,137.365753 L249.542466,137.365753 L249.542466,99.3794521 L219.313699,99.3794521 L219.313699,99.5164384 C182.686301,100.813699 175.179452,121.40274 174.517808,143.027397 L174.442466,143.027397 L174.442466,161.99589 L149.50137,161.99589 L149.50137,199.19589 L174.442466,199.19589 L174.442466,298.912329 L212.030137,298.912329 L212.030137,199.19589 L242.820548,199.19589 L248.768493,161.99589 L212.042466,161.99589 L212.042466,150.535616 C212.042466,143.227397 216.905479,137.365753 223.827397,137.365753 Z" id="Path" fill="#FFFFFF"></path>
            </g>
        </g>
    </g>
</svg>