<?xml version="1.0" encoding="UTF-8"?>
<svg width="1920px" height="1080px" viewBox="0 0 1920 1080" version="1.1" xmlns="http://www.w3.org/2000/svg" xmlns:xlink="http://www.w3.org/1999/xlink">
    <!-- Generator: Sketch 52.6 (67491) - http://www.bohemiancoding.com/sketch -->
    <title>Artboard</title>
    <desc>Created with Sketch.</desc>
    <defs>
        <linearGradient x1="1.06227794%" y1="0.974695703%" x2="100%" y2="100%" id="linearGradient-1">
            <stop stop-color="#3023AE" offset="0%"></stop>
            <stop stop-color="#C51EA1" offset="100%"></stop>
        </linearGradient>
        <linearGradient x1="0%" y1="0%" x2="101.999998%" y2="100.999999%" id="linearGradient-2">
            <stop stop-color="#3023AE" offset="0%"></stop>
            <stop stop-color="#C86DD7" offset="100%"></stop>
        </linearGradient>
    </defs>
    <g id="Artboard" stroke="none" stroke-width="1" fill="none" fill-rule="evenodd">
        <path d="M0,0 L1929,0 L1929,1080 L0,1080 L0,0 Z" id="Rectangle-2" fill="url(#linearGradient-1)" fill-rule="nonzero" opacity="0.41843843"></path>
        <path d="M1811.81093,-1.50990331e-14 L1920,-1.50990331e-14 L1920,1080 L0,1080 L0,441.630167 C68.8140898,423.365611 -11.0952816,450.320656 87.1792941,428.140331 C130.284517,418.411591 171.667232,404.4069 214.680897,394.433948 C285.928147,377.914885 448.098821,366.429813 486.254707,364.343733 C577.552352,359.352255 717.104141,379.043106 804.778567,364.826573 C984.445437,335.693334 792.584925,365.403886 988.75174,323.836488 C1005.74637,320.235357 1023.75144,320.442489 1040.94915,317.487648 C1093.55587,308.448972 1149.89633,297.197283 1198.4225,277.853626 C1218.57324,269.821074 1235.94989,258.073754 1255.40697,249.057834 C1361.83865,199.740096 1450.503,134.33149 1560.80586,87.8815324 C1597.32744,72.5018246 1719.05814,24.8672107 1811.81093,-3.01980663e-14 Z" id="Combined-Shape" fill-opacity="0.35" fill="url(#linearGradient-2)" fill-rule="nonzero"></path>
        <g id="undraw_notify_88a4" transform="translate(1238.000000, 519.000000)">
            <ellipse id="Oval" fill="#F2F2F2" cx="191.297468" cy="187.056225" rx="143.788427" ry="144.113208"></ellipse>
            <path d="M384.576387,80.9393121 L369.5755,98.7648643 C368.766207,106.442576 367.618203,115.021942 365.991187,124.022301 L390.637271,98.4669756 L390.752672,98.9133094 C389.350205,92.0458094 387.228779,85.8153614 384.439015,80.5167359 L384.576387,80.9393121 Z" id="Path" fill="#6C63FF"></path>
            <path d="M369.715055,97.4177514 L384.246183,80.1508274 C381.074597,74.2414864 377.058153,69.5210288 372.258643,66.4233238 C372.00893,66.2621699 371.757532,66.110181 371.505969,65.9592582 C371.509509,68.0582797 371.448164,80.3782945 369.715055,97.4177514 Z" id="Path" fill="#6C63FF"></path>
            <path d="M388.328748,152.678736 L388.359814,153.195938 C389.200606,150.027414 389.919305,146.854871 390.515909,143.67831 L354.774605,166.807009 L354.75106,166.571262 C354.074983,168.416296 353.380088,170.226962 352.666376,172.00326 L388.328748,152.678736 Z" id="Path" fill="#6C63FF"></path>
            <path d="M392.587778,124.57586 L392.660303,125.065866 C393.069111,116.466348 392.460269,107.848565 390.8465,99.3925869 L365.730577,125.434636 C364.167224,133.86334 362.326575,141.885429 360.20863,149.500905 L392.587778,124.57586 Z" id="Path" fill="#6C63FF"></path>
            <path d="M329.218016,81.0040113 C325.504462,85.8773876 322.291669,91.1143331 319.62858,96.6350692 L361.02407,143.995751 C362.728468,137.35303 364.102593,130.911485 365.208469,124.904206 L329.000025,81.4731672 L329.218016,81.0040113 Z" id="Path" fill="#6C63FF"></path>
            <path d="M316.704147,103.13798 L316.91462,102.66308 L359.424399,149.934243 C359.881898,148.315684 360.31958,146.705818 360.737444,145.104647 L319.189181,97.5691798 L319.402648,97.0960924 C318.462801,99.0409465 317.563301,101.054909 316.704147,103.13798 Z" id="Path" fill="#6C63FF"></path>
            <path d="M390.579226,142.561193 L390.629678,143.06679 C391.688907,137.306555 392.359131,131.481251 392.635783,125.630571 L359.818808,150.892752 C358.377754,155.962798 356.816734,160.830928 355.135749,165.497142 L390.579226,142.561193 Z" id="Path" fill="#6C63FF"></path>
            <path d="M343.209702,191.696945 C337.648201,201.398401 331.346265,209.59977 324.366623,216.204049 C332.08675,213.083218 363.188956,199.33462 379.307925,174.540727 L343.209702,191.696945 Z" id="Path" fill="#6C63FF"></path>
            <path d="M310.237548,127.199424 C309.62126,132.792295 309.379582,138.42027 309.514137,144.045529 L309.773221,143.541242 L343.113141,190.416996 C346.174636,184.958776 348.906744,179.321435 351.294748,173.535335 L310.237548,127.199424 Z" id="Path" fill="#6C63FF"></path>
            <path d="M369.100965,97.3653313 C370.971425,78.9293374 370.87124,66.0829638 370.869331,65.8986338 L371.187024,65.7693617 C363.681154,61.4083148 355.386757,61.5601984 347.307827,65.4361484 L369.100965,97.3653313 Z" id="Path" fill="#6C63FF"></path>
            <path d="M352.105845,173.374636 C351.880392,173.923737 351.656712,174.476259 351.427685,175.01863 C349.240658,180.223382 346.772502,185.304924 344.034177,190.240693 L379.790146,173.247049 L379.808044,173.754876 C382.609551,169.366054 384.844962,164.639166 386.460878,159.687126 C387.087044,157.73851 387.664555,155.782784 388.193411,153.819948 L352.105845,173.374636 Z" id="Path" fill="#6C63FF"></path>
            <path d="M365.426367,123.70502 C367.028667,114.805743 368.16026,106.327108 368.958925,98.7386838 L346.665968,66.0767147 L346.901137,65.6307475 C340.830293,68.6398903 334.892222,73.7517333 329.512828,80.6276778 L365.426367,123.70502 Z" id="Path" fill="#6C63FF"></path>
            <path d="M342.622961,191.281448 L309.527086,144.748684 C310.324679,178.479378 321.815497,214.477707 322.556727,216.767005 C330.504758,209.633283 337.119114,200.862882 342.622961,191.281448 Z" id="Path" fill="#6C63FF"></path>
            <path d="M351.678676,172.538463 L351.712836,172.519956 C354.563913,165.489899 357.035131,158.311036 359.115754,151.014562 L316.501405,103.627021 C315.349976,106.454339 314.280436,109.39967 313.292783,112.463014 C311.917355,116.856725 310.944654,121.367018 310.386768,125.937839 L351.678676,172.538463 Z" id="Path" fill="#6C63FF"></path>
            <path d="M418.29918,219.425489 L395.401873,223.565141 C389.892641,228.961089 383.548742,234.834958 376.568007,240.726862 L411.812989,236.799566 L411.617828,237.217094 C414.907989,231.031284 417.239005,224.876525 418.462291,219.012208 L418.29918,219.425489 Z" id="Path" fill="#6C63FF"></path>
            <path d="M396.366626,222.616817 L418.546622,218.607124 C419.864472,212.028356 419.775042,205.825171 418.04982,200.371237 C417.960049,200.087489 417.863148,199.809722 417.765439,199.532683 C416.432411,201.151576 408.544964,210.601104 396.366626,222.616817 Z" id="Path" fill="#6C63FF"></path>
            <path d="M375.53585,277.077164 L375.230644,277.495366 C377.894587,275.592488 380.467056,273.60846 382.948051,271.543284 L340.701884,266.508934 L340.833783,266.312321 C339.138932,267.301168 337.451464,268.251508 335.771379,269.163343 L375.53585,277.077164 Z" id="Path" fill="#6C63FF"></path>
            <path d="M396.700148,258.155231 L396.44418,258.578991 C402.231581,252.217065 407.246822,245.190532 411.385109,237.646215 L375.468509,241.648032 C368.90059,247.140346 362.377863,252.142231 355.900329,256.653685 L396.700148,258.155231 Z" id="Path" fill="#6C63FF"></path>
            <path d="M375.621568,184.087169 C369.660121,185.466681 363.852986,187.446324 358.28863,189.995941 L360.031728,252.934949 C365.571716,248.908342 370.72931,244.825547 375.403939,240.905739 L375.155122,184.30915 L375.621568,184.087169 Z" id="Path" fill="#6C63FF"></path>
            <path d="M351.897953,193.134954 L352.362264,192.903749 L355.020546,256.486109 C356.402933,255.53197 357.764514,254.571859 359.105289,253.605775 L357.355758,190.434505 L357.821225,190.206599 C355.859707,191.103697 353.885283,192.079815 351.897953,193.134954 Z" id="Path" fill="#6C63FF"></path>
            <path d="M383.70772,270.723369 L383.42484,271.145031 C387.90633,267.385676 392.129623,263.327534 396.06594,258.998255 L354.714369,257.476491 C350.378013,260.460185 346.077762,263.21168 341.813617,265.730975 L383.70772,270.723369 Z" id="Path" fill="#6C63FF"></path>
            <path d="M315.955307,278.285975 C305.498117,282.202736 295.42525,284.490773 285.846793,285.115546 C293.778776,287.647051 326.482676,296.940283 354.675622,288.148425 L315.955307,278.285975 Z" id="Path" fill="#6C63FF"></path>
            <path d="M331.605286,207.533035 C327.57145,211.446641 323.803794,215.626754 320.327636,220.045285 L320.848095,219.822508 L316.695469,277.238461 C322.526889,274.991674 328.218607,272.396368 333.739968,269.46652 L331.605286,207.533035 Z" id="Path" fill="#6C63FF"></path>
            <path d="M395.927025,222.183883 C409.099886,209.18038 417.19787,199.222195 417.313699,199.078996 L417.640654,199.182518 C414.634971,191.025512 408.150067,185.840247 399.461193,183.660965 L395.927025,222.183883 Z" id="Path" fill="#6C63FF"></path>
            <path d="M334.466941,269.861235 C333.943862,270.140026 333.419972,270.422581 332.898436,270.693889 C327.901824,273.304461 322.767097,275.640426 317.517056,277.691411 L355.870306,287.460289 L355.560926,287.862858 C360.511564,286.273511 365.241339,284.061907 369.637266,281.280879 C371.359588,280.180357 373.048962,279.043256 374.705388,277.869576 L334.466941,269.861235 Z" id="Path" fill="#6C63FF"></path>
            <path d="M376.334897,240.121431 C383.232273,234.291588 389.49943,228.484803 394.943655,223.150828 L398.559194,183.744019 L399.024127,183.550874 C392.433475,181.987663 384.60697,182.128805 376.088119,183.985776 L376.334897,240.121431 Z" id="Path" fill="#6C63FF"></path>
            <path d="M315.767827,277.590881 L319.890149,220.595111 C299.038977,247.084007 284.980556,282.155115 284.094584,284.392148 C294.755814,283.978645 305.431399,281.452028 315.767827,277.590881 Z" id="Path" fill="#6C63FF"></path>
            <path d="M334.670086,268.944144 L334.708169,268.951729 C341.377809,265.359818 347.849583,261.410472 354.095368,257.120852 L351.430611,193.382028 C348.74456,194.823551 346.046472,196.4083 343.336349,198.136277 C339.48095,200.641017 335.861536,203.492993 332.523089,206.656759 L334.670086,268.944144 Z" id="Path" fill="#6C63FF"></path>
            <path d="M299.37849,142.689622 L290.609595,164.289465 C292.207745,171.841924 293.761833,180.356824 294.990206,189.420457 L310.548106,157.48133 L310.795498,157.870061 C307.343772,151.773334 303.40476,146.505192 299.117523,142.330274 L299.37849,142.689622 Z" id="Path" fill="#6C63FF"></path>
            <path d="M290.326866,162.965086 L298.821289,142.042044 C293.982573,137.40462 288.707018,134.159595 283.187207,132.700444 C282.900021,132.624545 282.614059,132.557882 282.328261,132.492281 C282.978987,134.487419 286.720131,146.223134 290.326866,162.965086 Z" id="Path" fill="#6C63FF"></path>
            <path d="M325.071578,209.753542 L325.260626,210.23579 C325.083071,206.961959 324.788163,203.722124 324.375902,200.516285 L297.517738,233.584864 L297.422653,233.367953 C297.34869,235.332081 297.246233,237.269354 297.115282,239.179773 L325.071578,209.753542 Z" id="Path" fill="#6C63FF"></path>
            <path d="M320.455091,181.707422 L320.675184,182.150962 C318.411881,173.845909 315.175127,165.83875 311.032555,158.296796 L295.177922,190.844372 C296.290536,199.344644 297.014037,207.544119 297.348425,215.442798 L320.455091,181.707422 Z" id="Path" fill="#6C63FF"></path>
            <path d="M246.750942,159.900902 C244.722191,165.686073 243.281803,171.661875 242.451719,177.737276 L296.426148,209.954609 C295.998466,203.109168 295.318725,196.557365 294.517798,190.501665 L246.688315,160.414607 L246.750942,159.900902 Z" id="Path" fill="#6C63FF"></path>
            <path d="M241.675993,184.827717 L241.729703,184.310886 L296.736231,216.097873 C296.672162,214.416833 296.591928,212.750209 296.495528,211.098 L242.321923,178.761777 L242.379034,178.245725 C242.085,180.386495 241.850652,182.580492 241.675993,184.827717 Z" id="Path" fill="#6C63FF"></path>
            <path d="M324.091584,199.434261 L324.295494,199.899468 C323.526396,194.093165 322.367275,188.34549 320.826031,182.695608 L297.406962,216.887246 C297.600081,222.155444 297.616837,227.26878 297.457229,232.227255 L324.091584,199.434261 Z" id="Path" fill="#6C63FF"></path>
            <path d="M294.195199,260.838703 C291.89799,271.788011 288.433942,281.540076 283.832855,289.983206 C290.212466,284.623543 315.551539,261.912894 323.234727,233.339552 L294.195199,260.838703 Z" id="Path" fill="#6C63FF"></path>
            <path d="M242.946616,209.714205 C244.085361,215.22412 245.591194,220.651366 247.453996,225.959476 L247.544869,225.399622 L293.708648,259.65137 C294.936909,253.512001 295.79667,247.304323 296.283302,241.061774 L242.946616,209.714205 Z" id="Path" fill="#6C63FF"></path>
            <path d="M289.72668,163.105474 C285.819881,144.992821 281.762777,132.806566 281.704114,132.631852 L281.96638,132.410486 C273.48312,130.58828 265.64174,133.30229 259.153771,139.491248 L289.72668,163.105474 Z" id="Path" fill="#6C63FF"></path>
            <path d="M297.005086,240.657646 C296.960015,241.24969 296.917686,241.844468 296.86715,242.431224 C296.392366,248.05863 295.612223,253.655952 294.530184,259.198336 L323.294353,231.95984 L323.467992,232.437268 C324.7788,227.395473 325.446969,222.207539 325.45654,216.997396 C325.451088,214.950222 325.397173,212.911357 325.294795,210.880802 L297.005086,240.657646 Z" id="Path" fill="#6C63FF"></path>
            <path d="M294.355196,189.293697 C293.134491,180.333816 291.595858,171.919826 290.015139,164.455579 L258.740892,140.299298 L258.827013,139.802314 C253.981474,144.544814 249.910681,151.245922 246.915252,159.451665 L294.355196,189.293697 Z" id="Path" fill="#6C63FF"></path>
            <path d="M293.509047,260.625323 L247.683133,226.624184 C258.844226,258.456014 280.87424,289.131728 282.285191,291.079288 C287.64398,281.832664 291.229622,271.442629 293.509047,260.625323 Z" id="Path" fill="#6C63FF"></path>
            <path d="M296.34096,239.994771 L296.367742,239.966589 C296.911131,232.39754 297.047371,224.804651 296.775869,217.220915 L241.634017,185.355639 C241.410935,188.401215 241.302109,191.533649 241.307541,194.752941 C241.354487,199.357594 241.820394,203.948358 242.699472,208.468178 L296.34096,239.994771 Z" id="Path" fill="#6C63FF"></path>
            <ellipse id="Oval" fill="#3F3D56" cx="232.5" cy="321.477609" rx="232.5" ry="13.4842767"></ellipse>
            <path d="M313.223327,304.299997 C313.223327,330.507532 276.775484,322.401291 232.148799,322.401291 C187.522114,322.401291 151.615773,330.507507 151.615773,304.299997 C151.615773,278.092488 188.058621,272.392571 232.685315,272.392571 C277.312008,272.392571 313.223327,278.092463 313.223327,304.299997 Z" id="Path" fill="#000000" opacity="0.1"></path>
            <path d="M313.223327,297.847253 C313.223327,324.054787 276.775484,315.948542 232.148799,315.948542 C187.522114,315.948542 151.615773,324.054766 151.615773,297.847253 C151.615773,271.639739 188.058621,265.939822 232.685315,265.939822 C277.312008,265.939822 313.223327,271.639735 313.223327,297.847253 Z" id="Path" fill="#3F3D56"></path>
            <path d="M322.041447,188.610381 C322.041447,188.610381 322.041447,232.598291 324.386649,242.336071 C326.731851,252.073851 335.107568,287.331337 335.107568,287.331337 L346.498551,284.980859 C346.498551,284.980859 344.488376,238.306666 342.478205,231.590953 C340.468035,224.875239 344.823386,197.340827 350.518896,191.296685 C356.214406,185.252543 347.838667,181.558905 347.838667,181.558905 L322.041447,188.610381 Z" id="Path" fill="#2F2E41"></path>
            <path d="M322.041447,188.610381 C322.041447,188.610381 322.041447,232.598291 324.386649,242.336071 C326.731851,252.073851 335.107568,287.331337 335.107568,287.331337 L346.498551,284.980859 C346.498551,284.980859 344.488376,238.306666 342.478205,231.590953 C340.468035,224.875239 344.823386,197.340827 350.518896,191.296685 C356.214406,185.252543 347.838667,181.558905 347.838667,181.558905 L322.041447,188.610381 Z" id="Path" fill="#000000" opacity="0.1"></path>
            <path d="M349.513811,278.936713 C349.513811,278.936713 334.437514,284.980855 333.432425,284.980855 C332.427335,284.980855 331.757281,302.441696 331.757281,302.441696 C331.757281,302.441696 332.762367,312.851052 316.345958,316.208906 C299.929549,319.566761 329.412079,326.954042 334.772541,323.260403 C340.133003,319.566765 342.478205,316.880478 342.478205,316.880478 L344.488376,313.522619 L343.818309,319.230985 L346.16349,319.566769 L351.523948,308.821629 C351.523948,308.821629 352.864064,300.762777 351.188921,298.748066 C349.513777,296.733355 349.513811,278.936713 349.513811,278.936713 Z" id="Path" fill="#2F2E41"></path>
            <polygon id="Path" fill="#A0616A" points="273.797129 215.809107 276.14231 228.904868 287.198463 227.89734 285.188368 218.495428"></polygon>
            <path d="M328.071963,160.404409 L326.061792,163.762264 C326.061792,163.762264 268.101804,155.703411 268.101804,177.193686 C268.101804,198.683962 265.421575,211.443817 264.751517,212.451172 C264.081459,213.458528 282.173015,224.203668 286.193361,223.532096 C286.193361,223.532096 288.873594,219.838453 288.538542,215.137455 C288.203489,210.436457 291.218775,192.975625 288.538542,191.968253 C288.538542,191.968253 291.888829,190.625109 291.553802,188.610398 C291.553802,188.610398 338.792866,195.326107 344.823386,193.982964 C350.853906,192.63982 354.874252,188.27461 355.879337,185.588327 C356.884422,182.902044 359.037179,172.423396 359.037179,172.423396 L358.559566,154.696056 L353.199104,148.316126 L345.158413,147.30877 L332.762337,155.031839 L328.071963,160.404409 Z" id="Path" fill="#2F2E41"></path>
            <path d="M363.920049,192.304036 C363.920049,192.304036 359.229645,203.049176 364.590107,203.049176 C369.950569,203.049176 371.960736,193.64718 371.960736,193.64718 L363.920049,192.304036 Z" id="Path" fill="#A0616A"></path>
            <path d="M328.071963,105.335575 L326.396819,103.32086 C326.396819,103.32086 307.635205,61.0118771 315.005841,49.5951698 C322.376478,38.1784625 354.53925,36.499531 355.544327,37.1710943 C356.549404,37.8426577 359.564677,40.1931652 359.229645,40.8647369 C358.894614,41.5363087 352.19404,43.2152149 354.539242,47.2446623 C354.539242,47.2446623 351.188954,48.2520179 350.518896,46.9088786 C349.848838,45.5657392 347.838667,45.229947 347.168609,46.5730906 C346.498551,47.9162341 335.777627,50.9383049 335.777627,51.9456604 C335.777627,52.953016 334.102483,57.9898021 332.42734,58.6613738 C330.752196,59.3329456 332.762367,69.4065094 336.112658,72.0927964 C339.462949,74.7790835 341.808147,82.1663602 341.808147,82.1663602 L340.133003,97.2767143 L328.071963,105.335575 Z" id="Path" fill="#D0CDE1"></path>
            <path d="M337.659872,48.8320187 C335.655848,49.8545441 333.662806,51.1604373 332.454256,53.2181758 C329.980843,57.4295894 331.560661,63.1910626 330.028352,67.9281523 C329.374964,69.948059 328.184606,71.6838942 327.202455,73.5302625 C326.220304,75.3766308 325.418852,77.48751 325.676078,79.615923 C325.92841,81.7038495 327.154067,83.4747396 327.73298,85.4798979 C328.729232,88.9306086 327.730877,92.6718001 326.606002,96.0728296 C325.990075,97.9350953 325.334987,99.7804102 324.640738,101.608774 C324.237962,102.66946 323.75464,103.805898 322.830202,104.316918 L330.758692,104.968921 C333.063133,105.158426 335.609634,105.270029 337.420712,103.66709 C338.157581,102.961967 338.747275,102.117093 339.155524,101.181567 C340.945194,97.4356981 341.234347,93.0186283 341.028709,88.778902 C340.82307,84.5391757 340.161467,80.3261314 340.197654,76.0803836 C340.159622,74.6864041 340.347247,73.2954601 340.753232,71.961645 C341.176073,70.9197377 341.67382,69.9099688 342.242548,68.9402989 C344.04967,65.4479808 344.796159,61.416456 345.516501,57.4637804 C346.010486,54.7531753 346.79901,50.8267773 345.385557,48.2799809 C343.976342,45.7408536 339.56575,47.8595748 337.659872,48.8320187 Z" id="Path" fill="#2F2E41"></path>
            <ellipse id="Oval" fill="#A0616A" cx="345.493465" cy="64.7055239" rx="13.7361799" ry="13.7672064"></ellipse>
            <path d="M340.133003,76.458015 C340.133003,76.458015 342.310692,85.0205307 340.970575,89.3857619 C339.630459,93.7509931 359.229645,83.5095121 359.229645,83.5095121 C359.229645,83.5095121 353.199125,75.4506594 353.199125,72.7643724 L340.133003,76.458015 Z" id="Path" fill="#A0616A"></path>
            <path d="M365.260166,89.5536538 C365.260166,89.5536538 360.904789,86.1957992 360.904789,84.516855 C360.904789,82.8379109 357.889529,79.1442894 357.889529,79.1442894 C357.889529,79.1442894 343.483291,86.5315661 342.813232,86.5315661 C342.143174,86.5315661 341.808147,82.1663518 341.808147,82.1663518 L326.396819,103.320843 C326.396819,103.320843 321.371372,115.409127 323.046532,124.811123 C324.721693,134.213119 327.401909,143.950899 326.061792,152.681323 C324.721676,161.411748 326.396819,164.433819 328.406994,163.426463 C330.417169,162.419108 328.406994,159.061249 332.762367,159.397037 C337.117739,159.732825 351.859013,155.031823 352.864098,153.017107 C353.869183,151.002392 357.889546,157.382322 358.22456,161.075964 C358.559574,164.769607 357.554502,174.843171 358.22456,174.507387 C358.894618,174.171603 359.899704,168.463245 360.234731,165.776962 C360.569758,163.090679 361.574847,154.360251 360.234731,153.017107 C358.894614,151.673964 359.899704,149.659253 360.904789,148.987681 C361.909874,148.316109 378.32627,106.678719 378.32627,106.678719 C378.32627,106.678719 376.651127,97.9482903 370.955642,94.9262236 C365.260157,91.904157 365.260166,89.5536538 365.260166,89.5536538 Z" id="Path" fill="#D0CDE1"></path>
            <path d="M372.965829,100.970361 L378.326287,106.678719 L378.326287,136.899419 C378.326287,136.899419 385.361893,173.16426 381.00652,175.178975 C376.651148,177.193691 374.640973,176.522115 374.640973,176.522115 C374.640973,176.522115 375.646058,194.990323 372.630798,194.990323 C369.615538,194.990323 364.925134,193.64718 362.244905,194.318752 C362.244905,194.318752 362.914964,187.603038 364.925134,184.580972 C366.935305,181.558905 366.935309,176.186331 366.935309,176.186331 C366.935309,176.186331 363.920049,176.186331 363.920049,171.821117 C363.920049,167.455902 363.585022,164.769619 363.249991,163.762264 C362.914959,162.754908 360.569762,144.958271 360.569762,144.958271 L372.965829,100.970361 Z" id="Path" fill="#D0CDE1"></path>
            <path d="M342.561136,48.1363059 C344.880191,46.6591076 347.954884,47.7772491 350.648428,47.2327877 C353.576389,46.6409418 356.016415,44.0816808 358.99979,44.22737 C361.481128,44.3485473 363.440956,46.3097848 365.047733,48.2087881 C366.54939,49.890548 367.843337,51.7475738 368.901582,53.7396929 C370.002106,55.9535962 370.600901,58.3777742 371.191552,60.7793281 L373.172859,68.8353112 C373.844486,71.5661385 374.524218,74.3198764 375.743973,76.8528599 C376.963728,79.3858433 378.780251,81.7147128 381.246714,83.0562003 C378.229871,83.9688546 375.012856,83.9792407 371.990208,83.0860848 C373.151122,86.1242852 375.069887,88.8134123 377.56322,90.896595 C375.328656,91.5799571 372.920914,90.8911803 370.589347,91.0396506 C367.189034,91.2940459 364.158793,93.2847094 362.569405,96.3082103 C361.351765,98.6879871 361.164537,101.445914 360.43743,104.019164 C358.267028,111.700297 350.711556,117.508654 342.74709,117.61882 C344.980082,114.392749 347.324317,110.648119 346.459429,106.818639 C345.936679,104.504042 344.289406,102.560798 343.800954,100.238687 C343.278859,97.7566408 344.142102,95.2247908 344.72857,92.7572272 C345.315037,90.2896635 345.558317,87.4567013 344.032197,85.433158 C342.414144,83.2876958 339.166762,82.5791265 338.123367,80.1013443 C337.805091,79.182869 337.66553,78.2117361 337.712245,77.2405708 L337.645569,72.8248072 C337.585919,71.8991549 337.664191,70.9697605 337.877808,70.0672263 C338.221227,68.8841496 339.011836,67.8926465 339.765725,66.9193893 C341.198118,65.0701977 342.591508,63.1033011 343.146725,60.8293421 C343.820916,58.0681036 342.774578,56.3550906 341.432535,54.1199453 C340.271759,52.1866919 340.547144,49.4191831 342.561136,48.1363059 Z" id="Path" fill="#2F2E41"></path>
            <path d="M357.219475,39.5216018 C357.219475,39.5216018 372.630798,52.9530244 368.610461,57.6540352 C364.590124,62.3550459 358.224568,48.9236107 358.224568,48.9236107 L351.52399,43.8868119 L357.219475,39.5216018 Z" id="Path" fill="#A0616A"></path>
            <path d="M292.893939,219.838453 C292.893939,219.838453 275.13741,224.203668 273.127235,227.89731 C273.127235,227.89731 270.782054,239.314017 270.782054,244.015016 C270.782054,248.716014 269.776965,257.446438 260.396157,259.125365 C251.01535,260.804293 244.314775,263.826364 257.04587,266.176863 C269.776965,268.527362 273.462283,269.198933 277.147601,264.162152 C280.83292,259.12537 282.84309,257.782226 282.84309,257.782226 L285.523319,264.497935 L287.198463,264.497935 L293.564014,250.730729 C293.564014,250.730729 294.234068,244.015016 292.558925,239.985589 C290.883781,235.956163 292.893939,219.838453 292.893939,219.838453 Z" id="Path" fill="#2F2E41"></path>
            <path d="M359.062132,40.6968535 C359.062132,40.6968535 358.549946,46.0694233 351.267891,47.0767789 L349.681324,42.0399801 L354.706772,37.67477 L359.062132,40.6968535 Z" id="Path" fill="#D0CDE1"></path>
            <ellipse id="Oval" fill="#6C63FF" cx="180.158221" cy="210.944283" rx="36.1573237" ry="36.2389937"></ellipse>
            <path d="M161.76816,157.12505 L161.768114,157.12505 C147.915575,161.78305 132.799903,155.124633 126.856448,141.746544 L87.6639778,53.5284617 C83.3140745,43.7373125 83.2871806,32.5612808 87.589911,22.7492158 C91.8926414,12.9371509 100.125704,5.3996092 110.2641,1.99051943 L110.264176,1.99048994 C120.454852,-1.43618788 131.617334,-0.371373466 140.980068,4.92054846 C150.342801,10.2124704 157.02765,19.2351665 159.374819,29.748375 L180.414269,123.986214 C183.585089,138.188619 175.534855,152.495915 161.76816,157.12505 Z" id="Path" fill="#6C63FF"></path>
            <ellipse id="Oval" fill="#B51994" cx="180.158221" cy="210.944283" rx="36.1573237" ry="36.2389937"></ellipse>
            <path d="M126.856448,141.746544 L87.6639778,53.5284617 C83.3140745,43.7373125 83.2871806,32.5612808 87.589911,22.7492158 C91.8926414,12.9371509 100.125704,5.3996092 110.2641,1.99051943 C120.454852,-1.43618788 131.617334,-0.371373466 140.980068,4.92054846 C150.342801,10.2124704 157.02765,19.2351665 159.374819,29.748375 L180.414269,123.986214 C183.585089,138.188619 175.534855,152.495915 161.76816,157.12505 C147.915575,161.78305 132.799903,155.124633 126.856448,141.746544 Z" id="Path" fill="#B51994"></path>
            <ellipse id="Oval" fill="#C51EA1" cx="178.820926" cy="206.949292" rx="29.0099458" ry="29.0754717"></ellipse>
            <path d="M126.290409,132.617267 L90.3303072,51.6748962 C86.339168,42.691265 86.3144964,32.4369733 90.2623608,23.4341548 C94.2102251,14.4313363 101.764265,7.51544802 111.066499,4.38751396 C120.416782,1.24342464 130.658646,2.2204199 139.249195,7.07589456 C147.839744,11.9313692 153.973264,20.2099247 156.126853,29.8560638 L175.43108,116.321709 C178.340384,129.352776 170.954093,142.480082 158.322805,146.727438 C145.612702,151.001275 131.743683,144.892008 126.290409,132.617267 Z" id="Path" fill="#C51EA1"></path>
        </g>
    </g>
</svg>