<?xml version="1.0" encoding="UTF-8"?>
<svg width="1920px" height="1080px" viewBox="0 0 1920 1080" version="1.1" xmlns="http://www.w3.org/2000/svg" xmlns:xlink="http://www.w3.org/1999/xlink">
    <!-- Generator: Sketch 52.6 (67491) - http://www.bohemiancoding.com/sketch -->
    <title>Artboard</title>
    <desc>Created with Sketch.</desc>
    <defs>
        <linearGradient x1="1.06227794%" y1="0.974695703%" x2="100%" y2="100%" id="linearGradient-1">
            <stop stop-color="#3023AE" offset="0%"></stop>
            <stop stop-color="#C51EA1" offset="100%"></stop>
        </linearGradient>
    </defs>
    <g id="Artboard" stroke="none" stroke-width="1" fill="none" fill-rule="evenodd">
        <path d="M0,0 L1929,0 L1929,1080 L0,1080 L0,0 Z" id="Rectangle-2" fill="url(#linearGradient-1)" fill-rule="nonzero" opacity="0.41843843"></path>
        <g id="undraw_notify_88a4" transform="translate(1160.000000, 520.000000)">
            <ellipse id="Oval" fill="#F2F2F2" cx="273.164557" cy="266.904107" rx="205.323689" ry="205.630189"></ellipse>
            <path d="M549.15854,115.489526 L527.737918,140.924194 C526.582282,151.879257 524.942983,164.120861 522.619673,176.963164 L557.813222,140.499147 L557.978009,141.136006 C555.975347,131.337006 552.946042,122.446993 548.962378,114.886566 L549.15854,115.489526 Z" id="Path" fill="#6C63FF"></path>
            <path d="M527.937196,139.002045 L548.687022,114.364464 C544.158134,105.932628 538.422825,99.1971695 531.56933,94.7771606 C531.212752,94.5472155 530.853765,94.3303478 530.494545,94.1150013 C530.4996,97.110023 530.412001,114.689029 527.937196,139.002045 Z" id="Path" fill="#6C63FF"></path>
            <path d="M554.51675,217.852047 L554.561111,218.590025 C555.761726,214.068967 556.787996,209.542175 557.639922,205.009648 L506.602876,238.011195 L506.569256,237.674816 C505.603847,240.307431 504.611567,242.891008 503.592417,245.425547 L554.51675,217.852047 Z" id="Path" fill="#6C63FF"></path>
            <path d="M560.598462,177.753018 L560.702024,178.452191 C561.285784,166.181834 560.416384,153.885415 558.111992,141.81987 L522.247533,178.978376 C520.015132,191.005004 517.386765,202.451449 514.362431,213.317709 L560.598462,177.753018 Z" id="Path" fill="#6C63FF"></path>
            <path d="M470.109166,115.581843 C464.806372,122.535496 460.218642,130.007914 456.415865,137.885263 L515.526844,205.462594 C517.96065,195.984323 519.922843,186.793105 521.501986,178.221524 L469.797885,116.251265 L470.109166,115.581843 Z" id="Path" fill="#6C63FF"></path>
            <path d="M452.2399,147.164043 L452.540447,146.486425 L513.242582,213.936025 C513.895872,211.626557 514.520862,209.329496 515.117554,207.04484 L455.788421,139.218113 L456.093243,138.543081 C454.751182,141.318127 453.466735,144.19178 452.2399,147.164043 Z" id="Path" fill="#6C63FF"></path>
            <path d="M557.730336,203.415672 L557.80238,204.137091 C559.314913,195.91801 560.271964,187.606084 560.667011,179.257949 L513.805782,215.303688 C511.748018,222.537963 509.518949,229.48413 507.118575,236.142191 L557.730336,203.415672 Z" id="Path" fill="#6C63FF"></path>
            <path d="M490.088692,273.52579 C482.147108,287.368465 473.148215,299.070717 463.181587,308.494135 C474.205596,304.041129 518.618209,284.423727 541.635402,249.046171 L490.088692,273.52579 Z" id="Path" fill="#6C63FF"></path>
            <path d="M443.005875,181.496492 C442.125843,189.476767 441.780736,197.507131 441.972875,205.533621 L442.342836,204.814071 L489.950807,271.699475 C494.322491,263.911329 498.223824,255.867599 501.633791,247.611612 L443.005875,181.496492 Z" id="Path" fill="#6C63FF"></path>
            <path d="M527.060302,138.927249 C529.731239,112.621562 529.588179,94.2915126 529.585453,94.0284983 L530.039105,93.8440445 C519.321046,87.6214164 507.477003,87.8381338 495.940639,93.3685938 L527.060302,138.927249 Z" id="Path" fill="#6C63FF"></path>
            <path d="M502.792003,247.382316 C502.470065,248.165809 502.15066,248.954185 501.823619,249.728076 C498.700639,257.154557 495.176218,264.405235 491.266007,271.447915 L542.323993,247.200267 L542.349551,247.924867 C546.349983,241.662609 549.542054,234.917974 551.849511,227.852078 C552.74365,225.071665 553.568311,222.281107 554.323494,219.480404 L502.792003,247.382316 Z" id="Path" fill="#6C63FF"></path>
            <path d="M521.813135,176.510447 C524.10115,163.812374 525.717017,151.7145 526.857476,140.886838 L495.024091,94.2825959 L495.359904,93.6462607 C486.690999,97.9399032 478.211689,105.233816 470.530146,115.044866 L521.813135,176.510447 Z" id="Path" fill="#6C63FF"></path>
            <path d="M489.250851,272.932931 L441.991366,206.536928 C443.130294,254.666098 459.538689,306.030878 460.597132,309.297398 C471.946579,299.118535 481.391595,286.604351 489.250851,272.932931 Z" id="Path" fill="#6C63FF"></path>
            <path d="M502.182023,246.18921 L502.230803,246.162803 C506.302018,236.131855 509.830811,225.888583 512.801851,215.477494 L451.950393,147.861838 C450.306203,151.896042 448.778945,156.098634 447.368619,160.469614 C445.404567,166.738849 444.015592,173.174432 443.218955,179.69638 L502.182023,246.18921 Z" id="Path" fill="#6C63FF"></path>
            <path d="M597.313237,313.090697 L564.616869,318.997425 C556.749922,326.696718 547.691106,335.07794 537.722917,343.484896 L588.051236,337.881172 L587.772554,338.476929 C592.470762,329.650608 595.799353,320.868593 597.546154,312.501002 L597.313237,313.090697 Z" id="Path" fill="#6C63FF"></path>
            <path d="M565.994495,317.644294 L597.666574,311.923001 C599.548408,302.535982 599.420705,293.684871 596.957163,285.902839 C596.828974,285.49797 596.690602,285.101633 596.551078,284.706336 C594.647571,287.016278 583.384637,300.499486 565.994495,317.644294 Z" id="Path" fill="#6C63FF"></path>
            <path d="M536.249042,395.351894 L535.813221,395.948612 C539.617217,393.23346 543.290591,390.40252 546.833346,387.455791 L486.507637,380.272449 L486.695982,379.991908 C484.275808,381.40286 481.866177,382.758869 479.467088,384.059935 L536.249042,395.351894 Z" id="Path" fill="#6C63FF"></path>
            <path d="M566.470749,368.352837 L566.105237,368.957486 C574.369397,359.879871 581.530946,349.853954 587.440242,339.089226 L536.152882,344.799281 C526.774176,352.636076 517.460003,359.773093 508.210363,366.210332 L566.470749,368.352837 Z" id="Path" fill="#6C63FF"></path>
            <path d="M536.371443,262.667662 C527.858753,264.636041 519.566415,267.460726 511.620753,271.098686 L514.109823,360.904196 C522.020686,355.158768 529.385509,349.333169 536.060678,343.74013 L535.705378,262.984399 L536.371443,262.667662 Z" id="Path" fill="#6C63FF"></path>
            <path d="M502.495142,275.577636 L503.158157,275.247738 L506.95407,365.971224 C508.928059,364.609796 510.872338,363.239846 512.786908,361.861374 L510.288653,271.724457 L510.953319,271.399267 C508.152356,272.679305 505.332963,274.072095 502.495142,275.577636 Z" id="Path" fill="#6C63FF"></path>
            <path d="M547.918121,386.285881 L547.51418,386.887536 C553.913555,381.523443 559.944235,375.733019 565.565128,369.555719 L506.516863,367.384367 C500.324732,371.641697 494.184159,375.567711 488.095143,379.162407 L547.918121,386.285881 Z" id="Path" fill="#6C63FF"></path>
            <path d="M451.17059,397.076704 C436.238172,402.665396 421.854551,405.930118 408.176926,406.821585 C419.503457,410.433702 466.203219,423.693897 506.461533,411.149097 L451.17059,397.076704 Z" id="Path" fill="#6C63FF"></path>
            <path d="M473.518086,296.121764 C467.757941,301.705953 462.37789,307.670413 457.414087,313.975064 L458.15728,313.657191 L452.227508,395.582043 C460.554525,392.37618 468.682054,388.673026 476.56632,384.492528 L473.518086,296.121764 Z" id="Path" fill="#6C63FF"></path>
            <path d="M565.366762,317.026555 C584.177042,298.472303 595.740614,284.263311 595.906014,284.058986 L596.372891,284.206697 C592.080905,272.567745 582.820741,265.169069 570.413403,262.059526 L565.366762,317.026555 Z" id="Path" fill="#6C63FF"></path>
            <path d="M477.604405,385.055732 C476.857472,385.45353 476.109379,385.856698 475.364648,386.243817 C468.229701,389.968754 460.897532,393.301862 453.400699,396.228342 L508.167491,410.167218 L507.725709,410.74163 C514.795007,408.473845 521.548923,405.318184 527.826118,401.35003 C530.285519,399.779733 532.697872,398.157243 535.063177,396.482559 L477.604405,385.055732 Z" id="Path" fill="#6C63FF"></path>
            <path d="M537.390047,342.621026 C547.239202,334.302624 556.188433,326.017122 563.962552,318.406256 L569.125387,262.178034 L569.789291,261.902441 C560.378123,259.671949 549.202211,259.87334 537.037659,262.522987 L537.390047,342.621026 Z" id="Path" fill="#6C63FF"></path>
            <path d="M450.902876,396.084899 L456.789374,314.759591 C427.014798,352.555688 406.939977,402.597448 405.674846,405.789394 C420.898625,405.199379 436.142901,401.594237 450.902876,396.084899 Z" id="Path" fill="#6C63FF"></path>
            <path d="M477.894488,383.747166 L477.948869,383.757989 C487.472829,378.632815 496.714243,372.997629 505.632956,366.876917 L501.827798,275.930178 C497.992231,277.987037 494.139478,280.248261 490.269539,282.713852 C484.764195,286.28778 479.595828,290.357166 474.828669,294.871436 L477.894488,383.747166 Z" id="Path" fill="#6C63FF"></path>
            <path d="M427.499608,203.598923 L414.978003,234.418998 C417.260092,245.195343 419.479262,257.344961 421.233327,270.277548 L443.449338,224.704704 L443.802603,225.25937 C438.873688,216.560161 433.248947,209.043229 427.126957,203.086182 L427.499608,203.598923 Z" id="Path" fill="#6C63FF"></path>
            <path d="M414.574278,232.529287 L426.703949,202.674916 C419.79447,196.057935 412.261204,191.42772 404.379152,189.345709 C403.969063,189.23741 403.560721,189.142291 403.152613,189.048687 C404.081823,191.895481 409.424015,208.640771 414.574278,232.529287 Z" id="Path" fill="#6C63FF"></path>
            <path d="M464.188231,299.290128 L464.458184,299.978232 C464.204643,295.306915 463.783528,290.684106 463.194837,286.109804 L424.842533,333.294224 L424.706755,332.984721 C424.60114,335.787268 424.454836,338.551497 424.267843,341.277407 L464.188231,299.290128 Z" id="Path" fill="#6C63FF"></path>
            <path d="M457.596086,259.272082 L457.91037,259.904954 C454.678471,248.05476 450.056526,236.62962 444.141111,225.868264 L421.501376,272.309283 C423.090142,284.438029 424.12327,296.137579 424.600762,307.407933 L457.596086,259.272082 Z" id="Path" fill="#6C63FF"></path>
            <path d="M352.349733,228.157108 C349.452764,236.41177 347.395951,244.938437 346.210627,253.607217 L423.28379,299.577024 C422.673078,289.8095 421.702438,280.460956 420.558749,271.820286 L352.260303,228.890096 L352.349733,228.157108 Z" id="Path" fill="#6C63FF"></path>
            <path d="M345.102923,263.724325 L345.17962,262.986876 L423.726575,308.342636 C423.635088,305.944018 423.520517,303.565969 423.382862,301.208489 L346.025283,255.069043 L346.106836,254.332707 C345.686967,257.387297 345.35233,260.517836 345.102923,263.724325 Z" id="Path" fill="#6C63FF"></path>
            <path d="M462.788842,284.5659 L463.080018,285.229689 C461.981778,276.944874 460.326604,268.743715 458.125773,260.682092 L424.68435,309.468967 C424.960116,316.985977 424.984042,324.28202 424.756129,331.357098 L462.788842,284.5659 Z" id="Path" fill="#6C63FF"></path>
            <path d="M420.098091,372.181791 C416.817775,387.804983 411.871263,401.71987 405.301109,413.767082 C414.410919,406.119563 450.594026,373.714518 461.565287,332.944196 L420.098091,372.181791 Z" id="Path" fill="#6C63FF"></path>
            <path d="M346.917318,299.234001 C348.543397,307.095908 350.693661,314.83986 353.353664,322.41382 L353.483426,321.614983 L419.403317,370.487627 C421.15722,361.727571 422.384922,352.870049 423.079811,343.962769 L346.917318,299.234001 Z" id="Path" fill="#6C63FF"></path>
            <path d="M413.717237,232.729602 C408.138497,206.885278 402.345127,189.49713 402.261358,189.247836 L402.635864,188.931977 C390.522132,186.331934 379.324979,190.204461 370.060438,199.035274 L413.717237,232.729602 Z" id="Path" fill="#6C63FF"></path>
            <path d="M424.110488,343.386133 C424.046129,344.2309 423.985685,345.07957 423.913522,345.916791 C423.235551,353.946343 422.12154,361.93297 420.576435,369.841208 L461.650431,330.975533 L461.89838,331.656759 C463.770157,324.462795 464.724275,317.060309 464.737941,309.626135 C464.730156,306.705092 464.653168,303.795906 464.506975,300.898577 L424.110488,343.386133 Z" id="Path" fill="#6C63FF"></path>
            <path d="M420.326559,270.096678 C418.583445,257.312132 416.386343,245.306498 414.129145,234.65602 L369.470865,200.188252 L369.593843,199.479122 C362.674621,206.246033 356.861703,215.807614 352.58436,227.516107 L420.326559,270.096678 Z" id="Path" fill="#6C63FF"></path>
            <path d="M419.118295,371.877326 L353.680861,323.362268 C369.618422,368.782014 401.076334,412.552138 403.091112,415.331043 C410.743232,402.137354 415.863374,387.312169 419.118295,371.877326 Z" id="Path" fill="#6C63FF"></path>
            <path d="M423.162145,342.4403 L423.200388,342.400088 C423.976325,331.600072 424.17087,320.76604 423.783177,309.945067 L345.042983,264.477598 C344.724431,268.823226 344.569034,273.292788 344.57679,277.886286 C344.643826,284.456508 345.309122,291.006911 346.564408,297.456087 L423.162145,342.4403 Z" id="Path" fill="#6C63FF"></path>
            <ellipse id="Oval" fill="#3F3D56" cx="332" cy="458.705365" rx="332" ry="19.2402516"></ellipse>
            <path d="M447.269439,434.19522 C447.269439,471.589852 395.223486,460.023334 331.4985,460.023334 C267.773513,460.023334 216.500802,471.589816 216.500802,434.19522 C216.500802,396.800625 268.539623,388.667608 332.264621,388.667608 C395.98962,388.667608 447.269439,396.800589 447.269439,434.19522 Z" id="Path" fill="#000000" opacity="0.1"></path>
            <path d="M447.269439,424.98802 C447.269439,462.382652 395.223486,450.816128 331.4985,450.816128 C267.773513,450.816128 216.500802,462.382622 216.500802,424.98802 C216.500802,387.593419 268.539623,379.460402 332.264621,379.460402 C395.98962,379.460402 447.269439,387.593413 447.269439,424.98802 Z" id="Path" fill="#3F3D56"></path>
            <path d="M459.861335,269.121678 C459.861335,269.121678 459.861335,331.886517 463.210182,345.781021 C466.55903,359.675525 478.519195,409.983221 478.519195,409.983221 L494.785027,406.629405 C494.785027,406.629405 491.914584,340.031601 489.044147,330.44918 C486.17371,320.866759 492.392964,281.578851 500.525908,272.954673 C508.658851,264.330495 496.698656,259.060169 496.698656,259.060169 L459.861335,269.121678 Z" id="Path" fill="#2F2E41"></path>
            <path d="M459.861335,269.121678 C459.861335,269.121678 459.861335,331.886517 463.210182,345.781021 C466.55903,359.675525 478.519195,409.983221 478.519195,409.983221 L494.785027,406.629405 C494.785027,406.629405 491.914584,340.031601 489.044147,330.44918 C486.17371,320.866759 492.392964,281.578851 500.525908,272.954673 C508.658851,264.330495 496.698656,259.060169 496.698656,259.060169 L459.861335,269.121678 Z" id="Path" fill="#000000" opacity="0.1"></path>
            <path d="M499.090689,398.005221 C499.090689,398.005221 477.562386,406.629399 476.127162,406.629399 C474.691937,406.629399 473.735129,431.543673 473.735129,431.543673 C473.735129,431.543673 475.170347,446.396426 451.728422,451.187633 C428.286496,455.978841 470.386281,466.519498 478.04079,461.249172 C485.6953,455.978847 489.044147,452.145876 489.044147,452.145876 L491.914584,447.354662 L490.957758,455.499734 L494.306575,455.978853 L501.961078,440.646982 C501.961078,440.646982 503.874707,429.148081 501.482674,426.273359 C499.090641,423.398637 499.090689,398.005221 499.090689,398.005221 Z" id="Path" fill="#2F2E41"></path>
            <polygon id="Path" fill="#A0616A" points="390.970524 307.930606 394.319342 326.616498 410.107052 325.178891 407.236723 311.763625"></polygon>
            <path d="M468.472652,228.875545 L465.602215,233.666753 C465.602215,233.666753 382.837845,222.167852 382.837845,252.831588 C382.837845,283.495324 379.010594,301.701924 378.053779,303.139285 C377.096965,304.576646 402.930929,319.908517 408.67181,318.950274 C408.67181,318.950274 412.499067,313.679942 412.020627,306.972249 C411.542187,300.264557 415.847885,275.350295 412.020627,273.91291 C412.020627,273.91291 416.804693,271.996424 416.326289,269.121702 C416.326289,269.121702 483.781641,278.704117 492.392964,276.787632 C501.004288,274.871146 506.745168,268.642578 508.180387,264.809613 C509.615605,260.976648 512.689649,246.025025 512.689649,246.025025 L512.007638,220.730491 L504.353129,211.627189 L492.871368,210.189828 L475.170305,221.20961 L468.472652,228.875545 Z" id="Path" fill="#2F2E41"></path>
            <path d="M519.662178,274.392028 C519.662178,274.392028 512.964483,289.723899 520.618992,289.723899 C528.273501,289.723899 531.143932,276.308513 531.143932,276.308513 L519.662178,274.392028 Z" id="Path" fill="#A0616A"></path>
            <path d="M468.472652,150.299717 L466.080619,147.424988 C466.080619,147.424988 439.28984,87.055753 449.814793,70.7656453 C460.339745,54.4755376 506.2668,52.0799278 507.702007,53.0381585 C509.137213,53.9963892 513.442893,57.3502476 512.964483,58.3084903 C512.486073,59.266733 502.917941,61.6623066 506.266788,67.4117868 C506.266788,67.4117868 501.482722,68.8491479 500.525908,66.9326685 C499.569093,65.0161891 496.698656,64.5370588 495.741842,66.4535442 C494.785027,68.3700295 479.476009,72.6821186 479.476009,74.1194797 C479.476009,75.5568407 477.083976,82.7436579 474.691943,83.7019006 C472.29991,84.6601433 475.170347,99.0337656 479.954419,102.866736 C484.738491,106.699707 488.087333,117.240359 488.087333,117.240359 L485.6953,138.800804 L468.472652,150.299717 Z" id="Path" fill="#D0CDE1"></path>
            <path d="M482.163774,69.6767312 C479.302114,71.1357375 476.456136,72.9990717 474.730378,75.9351882 C471.19845,81.9443096 473.454363,90.165158 471.266291,96.9243486 C470.333281,99.8064842 468.633501,102.283288 467.231032,104.917807 C465.828564,107.552327 464.684124,110.564268 465.051431,113.601227 C465.411751,116.580418 467.161937,119.10724 467.988599,121.968332 C469.411204,126.892033 467.985597,132.23021 466.379323,137.083023 C465.499806,139.740226 464.564368,142.373242 463.573011,144.982072 C462.997864,146.495528 462.307701,148.117072 460.987643,148.84623 L472.309186,149.77655 C475.599828,150.046948 479.236122,150.206191 481.822264,147.919012 C482.874481,146.912896 483.716539,145.707374 484.299501,144.372505 C486.855072,139.027653 487.267971,132.725088 486.974328,126.675568 C486.680685,120.626048 485.735944,114.614599 485.787617,108.556488 C485.73331,106.567466 486.001231,104.582776 486.580959,102.679601 C487.184758,101.192939 487.895519,99.7521346 488.707638,98.3685459 C491.288131,93.3854771 492.354085,87.6330327 493.382702,81.9930957 C494.088091,78.1254263 495.21407,72.5229837 493.19572,68.8890473 C491.183422,65.2660539 484.885286,68.2891844 482.163774,69.6767312 Z" id="Path" fill="#2F2E41"></path>
            <ellipse id="Oval" fill="#A0616A" cx="493.349809" cy="92.3260908" rx="19.6146741" ry="19.6439541"></ellipse>
            <path d="M485.6953,109.095317 C485.6953,109.095317 488.804945,121.312877 486.891316,127.541475 C484.977687,133.770074 512.964483,119.156856 512.964483,119.156856 C512.964483,119.156856 504.353159,107.657956 504.353159,103.824985 L485.6953,109.095317 Z" id="Path" fill="#A0616A"></path>
            <path d="M521.575806,127.781034 C521.575806,127.781034 515.356516,122.989827 515.356516,120.594199 C515.356516,118.198571 511.050854,112.92827 511.050854,112.92827 C511.050854,112.92827 490.479365,123.468921 489.522551,123.468921 C488.565737,123.468921 488.087333,117.240347 488.087333,117.240347 L466.080619,147.424964 C466.080619,147.424964 458.904496,164.673321 461.296553,178.088707 C463.68861,191.504092 467.515844,205.398596 465.602215,217.855739 C463.688586,230.312882 466.080619,234.624971 468.951063,233.18761 C471.821506,231.750249 468.951063,226.959036 475.170347,227.43816 C481.389632,227.917284 502.439536,221.209586 503.874755,218.334857 C505.309974,215.460129 511.050878,224.563432 511.529264,229.833764 C512.00765,235.104096 510.57245,249.477718 511.529264,248.9986 C512.486079,248.519481 513.921297,240.374421 514.399701,236.541457 C514.878106,232.708492 516.31333,220.251343 514.399701,218.334857 C512.486073,216.418372 513.921297,213.54365 515.356516,212.585407 C516.791734,211.627165 540.233642,152.216202 540.233642,152.216202 C540.233642,152.216202 537.841609,139.759053 529.708702,135.44697 C521.575794,131.134887 521.575806,127.781034 521.575806,127.781034 Z" id="Path" fill="#D0CDE1"></path>
            <path d="M532.579163,144.071142 L540.233666,152.216202 L540.233666,195.337081 C540.233666,195.337081 550.280208,247.082138 544.060924,249.956866 C537.841639,252.831594 534.971196,251.873346 534.971196,251.873346 C534.971196,251.873346 536.406414,278.224999 532.100753,278.224999 C527.795091,278.224999 521.097396,276.308513 517.270145,277.266756 C517.270145,277.266756 518.226959,267.684335 521.097396,263.372252 C523.967833,259.060169 523.967839,251.394227 523.967839,251.394227 C523.967839,251.394227 519.662178,251.394227 519.662178,245.165653 C519.662178,238.937078 519.183773,235.104114 518.705363,233.666753 C518.226953,232.229392 514.878112,206.835981 514.878112,206.835981 L532.579163,144.071142 Z" id="Path" fill="#D0CDE1"></path>
            <path d="M489.162568,68.6840425 C492.474079,66.5762789 496.864608,68.1717167 500.710873,67.3948434 C504.891876,66.5503587 508.376129,62.8986371 512.636259,63.106516 C516.179504,63.2794197 518.978053,66.0778422 521.272462,68.7874648 C523.416763,71.1871103 525.264463,73.8368366 526.775593,76.679323 C528.347093,79.8382657 529.202146,83.297242 530.045571,86.7239368 L532.874793,98.2187425 C533.833847,102.115266 534.804475,106.04448 536.546233,109.658708 C538.28799,113.272935 540.881906,116.595919 544.40391,118.510041 C540.095987,119.812276 535.502228,119.827096 531.186018,118.552682 C532.843752,122.887786 535.583667,126.724809 539.14404,129.697231 C535.953177,130.672297 532.515026,129.689505 529.185649,129.901352 C524.330148,130.26434 520.003094,133.104749 517.733516,137.418879 C515.994778,140.814501 515.727425,144.749692 514.689148,148.421375 C511.589907,159.38132 500.801017,167.669064 489.428102,167.826257 C492.616719,163.223087 495.964186,157.880003 494.729164,152.41585 C493.982698,149.11323 491.630463,146.340482 490.932975,143.027142 C490.187446,139.485595 491.42012,135.872985 492.257571,132.352103 C493.095021,128.831221 493.442414,124.788965 491.26318,121.90164 C488.95267,118.840354 484.315548,117.829321 482.825625,114.293858 C482.371141,112.983318 482.171853,111.597641 482.238561,110.211919 L482.14335,103.911217 C482.058173,102.590436 482.169942,101.264315 482.474978,99.9765199 C482.965365,98.2884283 484.094321,96.8736866 485.170842,95.4849794 C487.216238,92.8464314 489.205938,90.0399341 489.998764,86.7953001 C490.96148,82.8553836 489.467354,80.4111442 487.550975,77.2218921 C485.893437,74.4633992 486.286674,70.5145359 489.162568,68.6840425 Z" id="Path" fill="#2F2E41"></path>
            <path d="M510.094046,56.3920169 C510.094046,56.3920169 532.100753,75.5568527 526.359884,82.2645636 C520.619016,88.9722745 511.529276,69.8074206 511.529276,69.8074206 L501.961138,62.6205854 L510.094046,56.3920169 Z" id="Path" fill="#A0616A"></path>
            <path d="M418.239948,313.679942 C418.239948,313.679942 392.884387,319.908517 390.013944,325.178848 C390.013944,325.178848 386.665127,341.468956 386.665127,348.176649 C386.665127,354.884342 385.229902,367.341485 371.834513,369.737089 C358.439123,372.132692 348.870991,376.444781 367.050447,379.798628 C385.229902,383.152474 390.492378,384.110717 395.754855,376.923906 C401.017331,369.737095 403.887768,367.820609 403.887768,367.820609 L407.715019,377.403024 L410.107052,377.403024 L419.196786,357.75907 C419.196786,357.75907 420.153595,348.176649 417.761562,342.427199 C415.369529,336.677749 418.239948,313.679942 418.239948,313.679942 Z" id="Path" fill="#2F2E41"></path>
            <path d="M512.725281,58.0689431 C512.725281,58.0689431 511.993902,65.7348787 501.59544,67.1722397 L499.329891,59.9854045 L506.506014,53.756836 L512.725281,58.0689431 Z" id="Path" fill="#D0CDE1"></path>
            <ellipse id="Oval" fill="#6C63FF" cx="257.258191" cy="300.989156" rx="51.6311031" ry="51.7081761"></ellipse>
            <path d="M230.997975,224.19634 L230.997909,224.19634 C211.217079,230.84268 189.63255,221.342013 181.145552,202.253278 L125.18039,76.3779245 C118.968915,62.4072697 118.930512,46.4605738 125.074626,32.4600752 C131.21874,18.4595765 142.975199,7.70451701 157.452393,2.84020385 L157.452501,2.84016176 C172.004348,-2.04924718 187.943892,-0.52990005 201.313473,7.02096168 C214.683054,14.5718234 224.22873,27.4459987 227.580387,42.4469351 L257.623817,176.911672 C262.151612,197.176597 250.656223,217.591187 230.997975,224.19634 Z" id="Path" fill="#6C63FF"></path>
            <ellipse id="Oval" fill="#B51994" cx="257.258191" cy="300.989156" rx="51.6311031" ry="51.7081761"></ellipse>
            <path d="M181.145552,202.253278 L125.18039,76.3779245 C118.968915,62.4072697 118.930512,46.4605738 125.074626,32.4600752 C131.21874,18.4595765 142.975199,7.70451701 157.452393,2.84020385 C172.004348,-2.04924718 187.943892,-0.52990005 201.313473,7.02096168 C214.683054,14.5718234 224.22873,27.4459987 227.580387,42.4469351 L257.623817,176.911672 C262.151612,197.176597 250.656223,217.591187 230.997975,224.19634 C211.217079,230.84268 189.63255,221.342013 181.145552,202.253278 Z" id="Path" fill="#B51994"></path>
            <ellipse id="Oval" fill="#C51EA1" cx="255.34859" cy="295.288841" rx="41.4249548" ry="41.4867925"></ellipse>
            <path d="M180.337273,189.227026 L128.987793,73.7331354 C123.288618,60.9147006 123.253388,46.2832037 128.890769,33.437391 C134.528149,20.5915783 145.314994,10.7235348 158.598183,6.26039306 C171.949986,1.77419994 186.574927,3.16824093 198.841861,10.096351 C211.108795,17.0244612 219.867198,28.8368478 222.942431,42.6005926 L250.508036,165.975453 C254.662397,184.569036 244.115092,203.299938 226.078156,209.360344 C207.928675,215.458536 188.124313,206.741432 180.337273,189.227026 Z" id="Path" fill="#C51EA1"></path>
        </g>
    </g>
</svg>