<?xml version="1.0" encoding="UTF-8"?>
<svg width="1920px" height="1080px" viewBox="0 0 1920 1080" version="1.1" xmlns="http://www.w3.org/2000/svg" xmlns:xlink="http://www.w3.org/1999/xlink">
    <!-- Generator: Sketch 52.6 (67491) - http://www.bohemiancoding.com/sketch -->
    <title>Artboard</title>
    <desc>Created with Sketch.</desc>
    <defs>
        <linearGradient x1="1.06227794%" y1="0.974695703%" x2="100%" y2="100%" id="linearGradient-1">
            <stop stop-color="#3023AE" offset="0%"></stop>
            <stop stop-color="#C51EA1" offset="100%"></stop>
        </linearGradient>
        <linearGradient x1="0%" y1="0%" x2="101.999998%" y2="100.999999%" id="linearGradient-2">
            <stop stop-color="#3023AE" offset="0%"></stop>
            <stop stop-color="#C86DD7" offset="100%"></stop>
        </linearGradient>
    </defs>
    <g id="Artboard" stroke="none" stroke-width="1" fill="none" fill-rule="evenodd">
        <rect id="Rectangle" fill="#FFFFFF" fill-rule="nonzero" x="0" y="0" width="1920" height="1080"></rect>
        <rect id="Rectangle" fill="url(#linearGradient-1)" fill-rule="nonzero" opacity="0.41843843" x="0" y="0" width="1920" height="1080"></rect>
        <path d="M1811.81093,-1.50990331e-14 L1920,-1.50990331e-14 L1920,1080 L0,1080 L0,441.630167 C68.8140898,423.365611 -11.0952816,450.320656 87.1792941,428.140331 C130.284517,418.411591 171.667232,404.4069 214.680897,394.433948 C285.928147,377.914885 448.098821,366.429813 486.254707,364.343733 C577.552352,359.352255 717.104141,379.043106 804.778567,364.826573 C984.445437,335.693334 792.584925,365.403886 988.75174,323.836488 C1005.74637,320.235357 1023.75144,320.442489 1040.94915,317.487648 C1093.55587,308.448972 1149.89633,297.197283 1198.4225,277.853626 C1218.57324,269.821074 1235.94989,258.073754 1255.40697,249.057834 C1361.83865,199.740096 1450.503,134.33149 1560.80586,87.8815324 C1597.32744,72.5018246 1719.05814,24.8672107 1811.81093,-3.01980663e-14 Z" id="Combined-Shape" fill-opacity="0.35" fill="url(#linearGradient-2)" fill-rule="nonzero"></path>
        <g id="cystem" transform="translate(85.000000, 82.000000)">
            <g id="Group">
                <path d="M17.2902486,7.88147553 C17.6053479,2.62293483 17.5502608,6.57951906 17.2902486,5.68557354 C16.8571972,4.19670367 14.3390123,23.4441606 10.8519898,44.6049894 C9.54764787,52.520326 7.06148725,62.248361 3.39350795,73.7890944 C10.8899792,65.010203 17.2230803,56.5860303 22.3928111,48.5165763 C27.5625418,40.4471222 35.7730463,26.1701213 47.0243244,5.68557354 C25.7525528,31.3320789 15.8411942,32.0640462 17.2902486,7.88147553 Z" id="Path-3" fill="#C51EA1" fill-rule="nonzero"></path>
                <path d="M13.8967406,2.77571828 C14.21184,-2.4536298 14.1567528,1.48098958 13.8967406,0.592006774 C13.4636893,-0.88859769 10.9455043,18.2520076 7.45848185,39.2953628 C6.15413992,47.1667577 3.66797931,56.8407878 0,68.3174532 C7.4964713,59.5872976 13.8295723,51.2098914 18.9993031,43.1852346 C24.1690339,35.1605779 32.3795383,20.9628353 43.6308164,0.592006774 C22.3590448,26.0961364 12.4476862,26.8240403 13.8967406,2.77571828 Z" id="Path-3" fill="#7138E0" fill-rule="nonzero"></path>
                <text id="cystem" font-family="Rubik-Regular, Rubik" font-size="48.4786849" font-weight="normal" letter-spacing="1.07730428" fill="#000000">
                    <tspan x="49.4482586" y="56.1500975">cystem</tspan>
                </text>
            </g>
        </g>
        <g id="undraw_not_found_60pq" transform="translate(116.000000, 550.000000)">
            <ellipse id="Oval" fill="#FF6584" cx="128.010504" cy="62.0102121" rx="38.5370205" ry="38.5306172"></ellipse>
            <path d="M315.507579,206.573313 C315.507579,297.488357 261.451044,329.232493 194.768932,329.232493 C128.08682,329.232493 74.0302968,297.488357 74.0302968,206.573313 C74.0302968,115.658269 194.768932,0 194.768932,0 C194.768932,0 315.507579,115.658269 315.507579,206.573313 Z" id="Path" fill="#F2F2F2"></path>
            <polygon id="Path" fill="#3F3D56" points="190.370473 315.325541 191.60727 239.237806 243.068644 145.106305 191.80116 227.301744 192.356936 193.089566 227.824242 124.9867 192.503858 184.036075 192.503858 184.036075 193.503412 122.503883 231.48285 68.2852844 193.661173 112.827882 194.285593 0 190.359634 149.363938 190.682382 143.202049 152.068889 84.1075211 190.063381 155.030347 186.465589 223.750907 186.358408 221.927325 141.843332 159.738908 186.223528 228.370968 185.773729 236.965102 185.693042 237.094541 185.729773 237.800133 176.601918 412.150574 188.797681 412.150574 190.260883 322.094889 234.53149 253.630798"></polygon>
            <path d="M674.754483,243.809458 C674.754483,318.227733 630.506637,344.211818 575.92415,344.211818 C521.341663,344.211818 477.093818,318.227733 477.093818,243.809458 C477.093818,169.391183 575.92415,74.7193556 575.92415,74.7193556 C575.92415,74.7193556 674.754483,169.391165 674.754483,243.809458 Z" id="Path" fill="#F2F2F2"></path>
            <polygon id="Path" fill="#3F3D56" points="572.32413 332.828074 573.335727 270.546943 615.459701 193.495943 573.494692 260.776422 573.949911 232.772489 602.981534 177.026513 574.070339 225.361366 574.070339 225.361366 574.888649 174.994625 605.975981 130.613976 575.016905 167.074777 575.528724 74.7192954 572.315098 196.980556 572.579438 191.93726 540.971855 143.56508 572.072435 201.619281 569.127364 257.87037 569.039451 256.377309 532.602096 205.472945 568.92926 261.651789 568.560749 268.686637 568.495116 268.792596 568.525223 269.369953 561.053256 412.083747 571.036151 412.083747 572.233809 338.369258 608.471855 282.328281"></polygon>
            <ellipse id="Oval" fill="#3F3D56" cx="333.942708" cy="409.676204" rx="333.942708" ry="16.8778131"></ellipse>
            <ellipse id="Oval" fill="#3F3D56" cx="537.377622" cy="437.561293" rx="57.1965134" ry="2.8907716"></ellipse>
            <ellipse id="Oval" fill="#3F3D56" cx="330.406533" cy="465.446376" rx="57.1965134" ry="2.8907716"></ellipse>
            <ellipse id="Oval" fill="#3F3D56" cx="173.383065" cy="442.065908" rx="130.673232" ry="6.60436453"></ellipse>
            <ellipse id="Oval" fill="#2F2E41" cx="58.458101" cy="340.917589" rx="47.5691347" ry="47.5612306"></ellipse>
            <polygon id="Rectangle" fill="#2F2E41" transform="translate(43.415332, 391.014268) rotate(0.675090) translate(-43.415332, -391.014268) " points="36.1896665 378.070403 50.6410488 378.070374 50.6409982 403.958133 36.1896158 403.958162"></polygon>
            <polygon id="Rectangle" fill="#2F2E41" transform="translate(72.316090, 391.354753) rotate(0.675090) translate(-72.316090, -391.354753) " points="65.0904237 378.410887 79.5418061 378.410859 79.5417554 404.298618 65.090373 404.298646"></polygon>
            <ellipse id="Oval" fill="#2F2E41" transform="translate(48.076033, 404.314993) rotate(-89.324910) translate(-48.076033, -404.314993) " cx="48.0760328" cy="404.314993" rx="4.51530681" ry="12.0428186"></ellipse>
            <ellipse id="Oval" fill="#2F2E41" transform="translate(76.983886, 404.053475) rotate(-89.324910) translate(-76.983886, -404.053475) " cx="76.9838855" cy="404.053475" rx="4.51530681" ry="12.0428186"></ellipse>
            <ellipse id="Oval" fill="#FFFFFF" cx="59.8041871" cy="328.891792" rx="16.2578055" ry="16.2551041"></ellipse>
            <ellipse id="Oval" fill="#3F3D56" cx="59.8041871" cy="328.891792" rx="5.41926851" ry="5.41836805"></ellipse>
            <path d="M12.8388553,296.146493 C9.20080999,278.90359 21.6828486,261.670723 40.7182761,257.655809 C59.7537036,253.640894 78.1341884,264.364302 81.7722458,281.607205 C85.4103031,298.850108 72.753174,305.044657 53.7177525,309.059583 C34.682331,313.07451 16.4769066,313.389401 12.8388553,296.146493 Z" id="Path" fill="#7138E0"></path>
            <path d="M131.021209,367.450862 C131.021209,400.608776 111.307205,412.186293 86.9866418,412.186293 C86.4232346,412.186293 85.8607246,412.180032 85.2991117,412.167509 C84.1722712,412.143361 83.0561728,412.089726 81.9535022,412.014591 C60.0046519,410.461452 42.9520685,398.288438 42.9520685,367.450843 C42.9520685,335.537601 83.7403254,295.268476 86.8041871,292.288247 L86.8095582,292.282895 C86.927626,292.16755 86.9866418,292.111217 86.9866418,292.111217 C86.9866418,292.111217 131.021209,334.292954 131.021209,367.450862 Z" id="Path" fill="#7138E0"></path>
            <path d="M85.3822674,407.113743 L101.487731,384.613265 L85.3420083,409.584296 L85.2991057,412.167509 C84.1722652,412.143361 83.0561668,412.089726 81.9534962,412.014591 L83.6893602,378.840584 L83.6759324,378.583061 L83.7054373,378.534778 L83.8690932,375.401666 L67.683087,350.368926 L83.9200524,373.051829 L83.9576501,373.717084 L85.2695587,348.652171 L71.4123686,322.785177 L85.4385856,344.252932 L86.8041751,292.288259 L86.8095462,292.111259 L86.8095462,292.282937 L86.5815094,333.260249 L100.377034,317.015253 L86.5251731,336.790358 L86.1603058,359.231829 L99.0409616,337.694322 L86.1066731,362.533927 L85.9027701,375.010021 L104.602624,345.033508 L85.833012,379.363686 L85.3822674,407.113743 Z" id="Path" fill="#3F3D56"></path>
            <ellipse id="Oval" fill="#2F2E41" cx="429.016422" cy="340.403145" rx="47.5691347" ry="47.5612306"></ellipse>
            <polygon id="Rectangle" fill="#2F2E41" transform="translate(429.972778, 392.700105) rotate(-17.083450) translate(-429.972778, -392.700105) " points="422.746586 379.755703 437.197761 379.756378 437.198969 405.644507 422.747794 405.643833"></polygon>
            <polygon id="Rectangle" fill="#2F2E41" transform="translate(457.599516, 384.213830) rotate(-17.083183) translate(-457.599516, -384.213830) " points="450.373319 371.269418 464.824505 371.270093 464.825713 397.158242 450.374527 397.157568"></polygon>
            <ellipse id="Oval" fill="#2F2E41" transform="translate(438.468887, 403.945747) rotate(-17.083450) translate(-438.468887, -403.945747) " cx="438.468887" cy="403.945747" rx="12.0426462" ry="4.51537146"></ellipse>
            <ellipse id="Oval" fill="#2F2E41" transform="translate(465.919510, 394.881084) rotate(-17.083450) translate(-465.919510, -394.881084) " cx="465.91951" cy="394.881084" rx="12.0426462" ry="4.51537146"></ellipse>
            <ellipse id="Oval" fill="#FFFFFF" cx="426.629824" cy="328.539875" rx="16.2578055" ry="16.2551041"></ellipse>
            <ellipse id="Oval" fill="#3F3D56" cx="426.629824" cy="328.539875" rx="5.41926851" ry="5.41836805"></ellipse>
            <path d="M371.913192,311.677221 C363.188429,296.365377 369.818699,276.147176 386.722319,266.518615 C403.625938,256.890055 424.401842,261.497263 433.126606,276.809108 C441.851369,292.120952 431.687055,301.880198 414.783436,311.508764 C397.879816,321.137331 380.637955,326.989066 371.913192,311.677221 Z" id="Path" fill="#7138E0"></path>
            <path d="M344.179104,361.379062 C344.179104,391.81651 326.082553,402.444145 303.757382,402.444145 C303.240203,402.444145 302.723845,402.438398 302.208308,402.426903 C301.173921,402.404736 300.14939,402.355501 299.137191,402.286549 C278.989145,400.860838 263.335655,389.686568 263.335655,361.379074 C263.335655,332.084174 300.777417,295.118959 303.589897,292.383249 L303.594828,292.378331 C303.703214,292.27245 303.757406,292.220734 303.757406,292.220734 C303.757406,292.220734 344.179104,330.941615 344.179104,361.379062 Z" id="Path" fill="#7138E0"></path>
            <path d="M302.284642,397.78778 L317.068725,377.133371 L302.247688,400.055632 L302.208308,402.426903 C301.173921,402.404736 300.14939,402.355501 299.137191,402.286549 L300.730636,371.834327 L300.718311,371.59793 L300.745407,371.553614 L300.895635,368.677556 L286.037621,345.698642 L300.942415,366.52051 L300.976924,367.131178 L302.181206,344.122734 L289.460936,320.378006 L302.336348,340.084424 L303.589897,292.383237 L303.594828,292.220722 L303.594828,292.378319 L303.3855,329.993605 L316.049126,315.081449 L303.333758,333.23409 L302.998823,353.834334 L314.822667,334.063913 L302.94958,356.865544 L302.762405,368.318047 L319.928016,340.80098 L302.698355,372.314497 L302.284642,397.78778 Z" id="Path" fill="#3F3D56"></path>
            <path d="M503.144314,374.073311 C503.144314,407.231225 483.430309,418.808743 459.109746,418.808743 C458.546343,418.808743 457.983833,418.802481 457.422216,418.789959 C456.295376,418.765811 455.179277,418.712175 454.076607,418.637041 C432.127756,417.083902 415.075173,404.910888 415.075173,374.073293 C415.075173,342.160051 455.86343,301.890926 458.927291,298.910697 L458.932663,298.905345 C459.05073,298.79 459.109746,298.733667 459.109746,298.733667 C459.109746,298.733667 503.144314,340.915403 503.144314,374.073311 Z" id="Path" fill="#7138E0"></path>
            <path d="M457.505372,413.736193 L473.610836,391.235715 L457.465113,416.206746 L457.42221,418.789959 C456.29537,418.765811 455.179271,418.712175 454.076601,418.637041 L455.812465,385.463034 L455.799037,385.205511 L455.828542,385.157227 L455.992198,382.024116 L439.806233,356.991394 L456.043199,379.674297 L456.080797,380.339552 L457.392705,355.274639 L443.535515,329.407645 L457.561732,350.875399 L458.927322,298.910727 L458.932693,298.733727 L458.932693,298.905405 L458.704656,339.882717 L472.500181,323.637721 L458.64832,343.412826 L458.283422,365.854297 L471.164066,344.316772 L458.229777,369.156377 L458.025874,381.632471 L476.725729,351.655957 L457.956116,385.986135 L457.505372,413.736193 Z" id="Path" fill="#3F3D56"></path>
            <ellipse id="Oval" fill="#2F2E41" transform="translate(410.547565, 358.683952) rotate(-64.625740) translate(-410.547565, -358.683952) " cx="410.547565" cy="358.683952" rx="7.46569763" ry="23.7838416"></ellipse>
            <ellipse id="Oval" fill="#2F2E41" transform="translate(43.843734, 355.673729) rotate(-68.158290) translate(-43.843734, -355.673729) " cx="43.8437337" cy="355.673729" rx="7.4656415" ry="23.7840203"></ellipse>
        </g>
    </g>
</svg>