<svg xmlns="http://www.w3.org/2000/svg" viewBox="0 0 105.49 65.89"><title>Asset 2</title><g id="Layer_2" data-name="Layer 2"><g id="Layer_1-2" data-name="Layer 1"><path d="M48.8,27.79c0-5.81,2.85-12.21,7.61-15.59a16.21,16.21,0,0,1,1.41-.9A17.93,17.93,0,0,1,84.68,25.45l.12.88.88,0c9.73,0,18,8.55,18,18.66s-8.23,18.66-18,18.66a15.2,15.2,0,0,1-10.5-3.71l-.26-.09H74l-.35.12a17.78,17.78,0,0,1-11.36,4.18c-4.31,0-7.29-1.4-11-5.08l-.64-.66L50,59a16.91,16.91,0,0,1-11.94,4.64A17.86,17.86,0,0,1,22,37.82q.33-.68.72-1.32A17.73,17.73,0,0,1,38,27.79a14.83,14.83,0,0,1,4.48.59V26.46A16.91,16.91,0,0,0,38,25.94a19.62,19.62,0,0,0-16.92,9.6c-.29.47-.54,1-.79,1.46A19.72,19.72,0,0,0,38.06,65.47a18.85,18.85,0,0,0,12.56-4.54c3.75,3.56,7.08,5,11.64,5A19.21,19.21,0,0,0,74.4,61.53a17.36,17.36,0,0,0,11.27,3.94c10.74,0,19.82-9.39,19.82-20.51,0-10.85-8.65-20-19-20.49A19.78,19.78,0,0,0,56.89,9.7c-.54.31-1.06.64-1.55,1C50.09,14.41,47,21.38,47,27.79c0,0,0,0,0,0"/><path d="M41.7,7.14A24.46,24.46,0,0,0,8.38,6L9.46,7.08a22.89,22.89,0,0,1,35.15,6.49l1.07-1.19a24.51,24.51,0,0,0-4-5.24"/><path d="M8.21,40.63A22.94,22.94,0,0,1,7,9.52L6,8.43A24.47,24.47,0,0,0,7.14,41.7a24.11,24.11,0,0,0,7.59,5.14l1.06-1.18a22.72,22.72,0,0,1-7.58-5"/></g></g></svg>