<?xml version="1.0" encoding="UTF-8"?>
<svg width="882px" height="301px" viewBox="0 0 882 301" version="1.1" xmlns="http://www.w3.org/2000/svg" xmlns:xlink="http://www.w3.org/1999/xlink">
    <!-- Generator: Sketch 52.6 (67491) - http://www.bohemiancoding.com/sketch -->
    <title>cystem</title>
    <desc>Created with Sketch.</desc>
    <g id="Page-2" stroke="none" stroke-width="1" fill="none" fill-rule="evenodd">
        <g id="Artboard" transform="translate(-243.000000, -347.000000)">
            <g id="cystem" transform="translate(243.000000, 347.000000)">
                <g id="Group">
                    <path d="M70.3542016,32.069806 C71.636344,10.6727492 71.4121939,26.7721316 70.3542016,23.134658 C68.5921111,17.0764309 58.3455903,95.3945337 44.1568595,181.498167 C38.8494786,213.705754 28.7332652,253.289229 13.8082192,300.248594 C44.311439,264.527193 70.0808931,230.249147 91.1165815,197.414454 C112.15227,164.579762 145.560898,106.486496 191.342466,23.134658 C104.787405,127.490555 64.4579841,130.468938 70.3542016,32.069806 Z" id="Path-3" fill="#C51EA1" fill-rule="nonzero"></path>
                    <path d="M56.5459824,11.2944266 C57.8281248,-9.98384522 57.6039747,6.02616201 56.5459824,2.40888173 C54.7838919,-3.61571325 44.5373711,74.2676092 30.3486404,159.893241 C25.0412595,191.922028 14.925046,231.285758 0,277.984429 C30.5032198,242.461334 56.2726739,208.373581 77.3083623,175.72117 C98.3440507,143.068758 131.752679,85.2979951 177.534247,2.40888173 C90.9791863,106.185451 50.6497649,109.147299 56.5459824,11.2944266 Z" id="Path-3" fill="#7138E0" fill-rule="nonzero"></path>
                    <text id="cystem" font-family="Rubik-Regular, Rubik" font-size="197.260274" font-weight="normal" letter-spacing="4.38356232" fill="#000000">
                        <tspan x="201.205479" y="229.369863">cystem</tspan>
                    </text>
                </g>
            </g>
        </g>
    </g>
</svg>