<svg xmlns="http://www.w3.org/2000/svg" viewBox="0 0 104.13 86.27"><title>Asset 3</title><g id="Layer_2" data-name="Layer 2"><g id="Layer_1-2" data-name="Layer 1"><path d="M41.7,7.14A24.46,24.46,0,0,0,8.38,6L9.46,7.08a22.89,22.89,0,0,1,35.15,6.49l1.07-1.19a24.51,24.51,0,0,0-4-5.24"/><path d="M8.21,40.63A22.94,22.94,0,0,1,7,9.52L6,8.43A24.47,24.47,0,0,0,7.14,41.7a24.11,24.11,0,0,0,7.59,5.14l1.06-1.18a22.72,22.72,0,0,1-7.58-5"/><path d="M49.75,25.18c0-5.57,2.72-11.71,7.29-14.95.43-.3.88-.59,1.35-.86A17.2,17.2,0,0,1,84.17,22.94l.11.85.84,0c9.35,0,17.24,8.2,17.24,17.9s-7.9,17.9-17.24,17.9A14.6,14.6,0,0,1,75,56l-.25-.13h-.9l-.33.17a17.09,17.09,0,0,1-10.9,4c-4.14,0-7-1.34-10.52-4.87l-.61-.62-.63.59a16.27,16.27,0,0,1-11.46,4.45A17.14,17.14,0,0,1,24,34.81c.21-.43.44-.86.69-1.27a16.88,16.88,0,0,1,14.6-8.36,13.87,13.87,0,0,1,4.19.57V23.91a15.47,15.47,0,0,0-4.19-.5,18.76,18.76,0,0,0-16.2,9.21c-.27.46-.49.93-.72,1.4A18.93,18.93,0,0,0,39.43,61.34,18.07,18.07,0,0,0,51.49,57c3.6,3.42,6.79,4.77,11.17,4.77A18.39,18.39,0,0,0,74.3,57.56a16.69,16.69,0,0,0,10.82,3.78c10.3,0,19-9,19-19.68,0-10.41-8.29-19.24-18.27-19.66A19,19,0,0,0,57.51,7.83c-.52.3-1,.62-1.5.95-5,3.57-8,10.26-8,16.4v0"/><path d="M35.49,79.49a1,1,0,0,1-.44-.1,1,1,0,0,1-.45-1.34l4.73-9.56a1,1,0,0,1,1.8.89l-4.74,9.55a1,1,0,0,1-.9.56"/><path d="M51.56,79.49a1,1,0,0,1-.45-.1,1,1,0,0,1-.45-1.34l4.74-9.56a1,1,0,1,1,1.79.89l-4.74,9.55a1,1,0,0,1-.89.56"/><path d="M67.56,79.49a1,1,0,0,1-.45-.1,1,1,0,0,1-.45-1.34l4.74-9.56a1,1,0,0,1,1.79.89l-4.74,9.55a1,1,0,0,1-.89.56"/><path d="M40.21,86.27a1,1,0,0,1-.44-.11,1,1,0,0,1-.46-1.34l5.74-11.55a1,1,0,0,1,1.79.89L41.11,85.71a1,1,0,0,1-.9.56"/><path d="M72.36,86.27a1,1,0,0,1-.89-1.45L77.2,73.27a1,1,0,0,1,1.79.89L73.26,85.71a1,1,0,0,1-.9.56"/><path d="M56.28,86.27a1,1,0,0,1-.44-.11,1,1,0,0,1-.45-1.34l5.74-11.55a1,1,0,0,1,1.34-.45,1,1,0,0,1,.45,1.34L57.18,85.71a1,1,0,0,1-.9.56"/><path d="M83.56,79.49a1,1,0,0,1-.45-.1,1,1,0,0,1-.45-1.34l4.74-9.56a1,1,0,0,1,1.79.89l-4.74,9.55a1,1,0,0,1-.89.56"/></g></g></svg>