<svg xmlns="http://www.w3.org/2000/svg" viewBox="0 0 104.22 104.23"><title>Asset 1</title><g id="Layer_2" data-name="Layer 2"><g id="Layer_1-2" data-name="Layer 1"><path d="M78.45,25.78h0a1,1,0,0,1,0-1.4L84,18.8a1,1,0,0,1,1.39,0,1,1,0,0,1,0,1.4l-5.58,5.58a1,1,0,0,1-1.39,0"/><path d="M103.24,53.1H90.34a1,1,0,0,1,0-2h12.9a1,1,0,0,1,0,2"/><path d="M52.11,104.23h0a1,1,0,0,1-1-1V90.35a1,1,0,0,1,2,0v12.89a1,1,0,0,1-1,1"/><path d="M0,52.88H0a1,1,0,0,1,1-1l12.89-.27a1,1,0,0,1,1,1,1,1,0,0,1-.95,1L1,53.84a1,1,0,0,1-1-1"/><path d="M52.11,14.87h0a1,1,0,0,1-1-1V1a1,1,0,0,1,2,0V13.88a1,1,0,0,1-1,1"/><path d="M84,85.43l-5.58-5.58a1,1,0,0,1,1.39-1.4L85.42,84A1,1,0,0,1,84,85.43"/><path d="M18.8,85.43h0a1,1,0,0,1,0-1.4l5.58-5.58a1,1,0,0,1,1.39,1.4l-5.58,5.58a1,1,0,0,1-1.39,0"/><path d="M24.38,25.78,18.79,20.2a1,1,0,0,1,0-1.4,1,1,0,0,1,1.4,0l5.58,5.58a1,1,0,0,1-1.39,1.4"/><path d="M71.46,32.77a27.39,27.39,0,0,0-37.31-1.28l1.21,1.21a25.73,25.73,0,1,1-2.71,2.73l-1.22-1.21a27.35,27.35,0,1,0,40-1.45"/></g></g></svg>